<svg width="156" height="306" viewBox="0 0 156 306" fill="none" xmlns="http://www.w3.org/2000/svg">
<path d="M156 72.717H154.291V26.6578C154.291 19.5877 151.435 12.8072 146.353 7.8079C141.271 2.8086 134.378 5.5757e-06 127.191 0H27.9875C24.4292 -8.83439e-06 20.9046 0.689507 17.617 2.02918C14.3286 3.36885 11.3414 5.33245 8.82493 7.80785C6.30842 10.2833 4.31241 13.222 2.95014 16.4562C1.58867 19.6905 0.887451 23.157 0.887451 26.6577V279.342C0.887451 282.843 1.58867 286.309 2.95014 289.544C4.31241 292.778 6.30842 295.717 8.82493 298.192C11.3414 300.668 14.3286 302.631 17.617 303.971C20.9046 305.311 24.4284 306 27.9875 306H127.191C134.378 306 141.271 303.191 146.353 298.192C151.435 293.193 154.291 286.412 154.291 279.342V105.503H156V72.717Z" fill="#3F3D56"/>
<path d="M128.284 6.93541H115.334C115.93 8.37159 116.158 9.92973 115.996 11.4726C115.835 13.0155 115.292 14.4959 114.412 15.7831C113.533 17.0704 112.345 18.1252 110.953 18.8546C109.561 19.5839 108.009 19.9655 106.432 19.9656H49.6007C48.0231 19.9655 46.4713 19.584 45.0793 18.8546C43.6881 18.1252 42.5002 17.0704 41.6206 15.7831C40.7411 14.4959 40.1973 13.0155 40.0359 11.4726C39.8752 9.92966 40.1025 8.37151 40.6977 6.93539H28.6036C23.2356 6.93539 18.0885 9.03277 14.2925 12.7662C10.4972 16.4996 8.36548 21.5633 8.36548 26.8432V279.157C8.36548 281.771 8.88838 284.359 9.90527 286.775C10.923 289.191 12.4137 291.385 14.2925 293.233C16.172 295.082 18.4034 296.549 20.8589 297.549C23.3135 298.549 25.9457 299.065 28.6036 299.065H128.284C130.942 299.065 133.573 298.549 136.029 297.549C138.484 296.549 140.715 295.082 142.594 293.233C144.474 291.385 145.964 289.191 146.981 286.775C147.998 284.36 148.522 281.771 148.522 279.157V26.8432C148.522 24.2288 147.998 21.64 146.981 19.2248C145.964 16.8094 144.474 14.6149 142.594 12.7662C140.715 10.9176 138.484 9.4512 136.029 8.45081C133.573 7.45034 130.942 6.93541 128.284 6.93541Z" fill="white"/>
<path d="M136.405 158.954H88.2294V269.227H136.405V158.954Z" fill="#E6E6E6"/>
<path d="M136.579 53.9227H88.2768V80.7334H136.579V53.9227Z" fill="#E6E6E6"/>
<path d="M136.579 88.2H88.2768V117.047H136.579V88.2Z" fill="#E6E6E6"/>
<path d="M136.579 124.514H88.2768V151.324H136.579V124.514Z" fill="#E6E6E6"/>
<path d="M78.3425 158.954H20.3802V201.402H78.3425V158.954Z" fill="#C1482E"/>
<path d="M78.3425 209.63H20.3802V269.316H78.3425V209.63Z" fill="#E6E6E6"/>
<rect x="23.2347" y="96.4968" width="51.5305" height="8.47436" fill="#C1482E" stroke="black" stroke-width="0.015"/>
<rect x="45.3182" y="88" width="8.59091" height="57" fill="#C4C4C4"/>
<rect x="22" y="126.809" width="3.6383" height="54" transform="rotate(-90 22 126.809)" fill="#C4C4C4"/>
<rect x="22" y="137.723" width="3.6383" height="54" transform="rotate(-90 22 137.723)" fill="#C4C4C4"/>
<rect x="58.8182" y="88" width="8.59091" height="57" fill="#C4C4C4"/>
<rect x="22" y="115.894" width="3.6383" height="54" transform="rotate(-90 22 115.894)" fill="#C4C4C4"/>
<rect x="31.8182" y="88" width="8.59091" height="57" fill="#C4C4C4"/>
<ellipse cx="36.1137" cy="114.074" rx="1.84091" ry="1.81915" fill="#3A3434" fill-opacity="0.29"/>
<ellipse cx="49.6137" cy="126.202" rx="1.84091" ry="1.81915" fill="#3A3434" fill-opacity="0.29"/>
<ellipse cx="63.1137" cy="135.904" rx="1.84091" ry="1.81915" fill="#3A3434" fill-opacity="0.29"/>
<ellipse cx="27.5227" cy="100.734" rx="1.84091" ry="1.81915" fill="#3A3434" fill-opacity="0.29"/>
<ellipse cx="70.4773" cy="100.734" rx="1.84091" ry="1.81915" fill="#3A3434" fill-opacity="0.29"/>
<ellipse cx="36.1136" cy="100.734" rx="1.84091" ry="1.81915" fill="#3A3434" fill-opacity="0.29"/>
<ellipse cx="49.6136" cy="100.734" rx="1.84091" ry="1.81915" fill="#3A3434" fill-opacity="0.29"/>
<ellipse cx="63.1136" cy="100.734" rx="1.84091" ry="1.81915" fill="#3A3434" fill-opacity="0.29"/>
<path d="M44.2102 191.657C39.396 189.413 36.0667 184.589 36.0667 179C36.0667 171.268 42.4391 165 50.3 165C58.1609 165 64.5333 171.268 64.5333 179C64.5333 184.589 61.204 189.413 56.3898 191.657" stroke="#D2D4D9" stroke-width="2" stroke-miterlimit="10" stroke-linecap="round" stroke-linejoin="round"/>
<g filter="url(#filter0_d)">
<path d="M44.2 211C44.2 207.686 41.4692 205 38.1 205C34.7308 205 32 207.686 32 211V225C32 241.568 45.6559 255 62.5 255C79.3441 255 93 241.568 93 225V211C93 207.686 90.2692 205 86.9 205C83.5308 205 80.8 207.686 80.8 211V207C80.8 203.686 78.0692 201 74.7 201C71.3308 201 68.6 203.686 68.6 207V203C68.6 199.686 65.8692 197 62.5 197C59.1308 197 56.4 199.686 56.4 203V179C56.4 175.686 53.6692 173 50.3 173C46.9308 173 44.2 175.686 44.2 179V223V211Z" fill="#FBFBFB"/>
<path d="M44.2 211C44.2 207.686 41.4692 205 38.1 205C34.7308 205 32 207.686 32 211V225C32 241.568 45.6559 255 62.5 255C79.3441 255 93 241.568 93 225V211C93 207.686 90.2692 205 86.9 205C83.5308 205 80.8 207.686 80.8 211V207C80.8 203.686 78.0692 201 74.7 201C71.3308 201 68.6 203.686 68.6 207V203C68.6 199.686 65.8692 197 62.5 197C59.1308 197 56.4 199.686 56.4 203V179C56.4 175.686 53.6692 173 50.3 173C46.9308 173 44.2 175.686 44.2 179V223V211Z" stroke="#403C3C" stroke-width="4" stroke-miterlimit="10" stroke-linecap="round" stroke-linejoin="round"/>
</g>
<defs>
<filter id="filter0_d" x="26" y="171" width="73" height="94" filterUnits="userSpaceOnUse" color-interpolation-filters="sRGB">
<feFlood flood-opacity="0" result="BackgroundImageFix"/>
<feColorMatrix in="SourceAlpha" type="matrix" values="0 0 0 0 0 0 0 0 0 0 0 0 0 0 0 0 0 0 127 0"/>
<feOffset dy="4"/>
<feGaussianBlur stdDeviation="2"/>
<feColorMatrix type="matrix" values="0 0 0 0 0 0 0 0 0 0 0 0 0 0 0 0 0 0 0.25 0"/>
<feBlend mode="normal" in2="BackgroundImageFix" result="effect1_dropShadow"/>
<feBlend mode="normal" in="SourceGraphic" in2="effect1_dropShadow" result="shape"/>
</filter>
</defs>
</svg>
