<svg width="174" height="52" viewBox="0 0 174 52" fill="none" xmlns="http://www.w3.org/2000/svg">
<path d="M79.78 16.54L78.3 17.12V27.3L79.78 27.9V29H75.1V27.9L76.58 27.3V17.12L75.1 16.54V15.4H79.78V16.54ZM87.035 18.68C88.1417 18.68 88.9217 18.82 89.375 19.1C89.8283 19.38 90.055 19.8267 90.055 20.44C90.055 21.52 89.415 22.06 88.135 22.06L87.255 20.06C86.2017 20.06 85.4083 20.18 84.875 20.42C84.3417 20.66 83.9683 21.0533 83.755 21.6C83.555 22.1333 83.455 22.9133 83.455 23.94C83.455 24.9933 83.5683 25.8 83.795 26.36C84.035 26.92 84.395 27.3067 84.875 27.52C85.3683 27.7333 86.035 27.84 86.875 27.84C87.4483 27.84 87.9683 27.8067 88.435 27.74C88.9017 27.66 89.3883 27.5267 89.895 27.34V28.78C89.4817 28.94 88.995 29.06 88.435 29.14C87.8883 29.2333 87.3417 29.28 86.795 29.28C85.1417 29.28 83.875 28.8867 82.995 28.1C82.1283 27.3 81.695 25.9333 81.695 24C81.695 22.12 82.135 20.7667 83.015 19.94C83.9083 19.1 85.2483 18.68 87.035 18.68ZM96.7555 18.68C98.2888 18.68 99.5155 19.1067 100.435 19.96C101.369 20.8 101.835 22.14 101.835 23.98C101.835 25.82 101.369 27.1667 100.435 28.02C99.5155 28.86 98.2888 29.28 96.7555 29.28C95.2221 29.28 93.9888 28.86 93.0555 28.02C92.1355 27.1667 91.6755 25.82 91.6755 23.98C91.6755 22.14 92.1355 20.8 93.0555 19.96C93.9888 19.1067 95.2221 18.68 96.7555 18.68ZM96.7555 20.12C95.9555 20.12 95.3155 20.2333 94.8355 20.46C94.3688 20.6867 94.0155 21.08 93.7755 21.64C93.5488 22.2 93.4355 22.98 93.4355 23.98C93.4355 24.98 93.5488 25.76 93.7755 26.32C94.0155 26.88 94.3688 27.2733 94.8355 27.5C95.3155 27.7267 95.9555 27.84 96.7555 27.84C97.5555 27.84 98.1888 27.7267 98.6555 27.5C99.1355 27.2733 99.4888 26.88 99.7155 26.32C99.9555 25.76 100.075 24.98 100.075 23.98C100.075 22.98 99.9555 22.2 99.7155 21.64C99.4888 21.08 99.1355 20.6867 98.6555 20.46C98.1888 20.2333 97.5555 20.12 96.7555 20.12ZM121.892 27.9V29H118.852V22.38C118.852 21.5933 118.679 21.0267 118.332 20.68C117.986 20.32 117.472 20.14 116.792 20.14C116.326 20.14 115.892 20.2 115.492 20.32C115.106 20.4267 114.466 20.64 113.572 20.96V27.3L114.932 27.9V29H111.892V22.38C111.892 21.5933 111.719 21.0267 111.372 20.68C111.026 20.32 110.512 20.14 109.832 20.14C109.379 20.14 108.952 20.2 108.552 20.32C108.166 20.4267 107.519 20.64 106.612 20.96V27.3L107.972 27.9V29H103.572V27.9L104.932 27.3V20.66L103.572 20.1V18.96H105.792L106.312 19.78C107.099 19.38 107.806 19.1 108.432 18.94C109.059 18.7667 109.706 18.68 110.372 18.68C111.039 18.68 111.592 18.7733 112.032 18.96C112.486 19.1467 112.859 19.44 113.152 19.84C113.952 19.4267 114.672 19.1333 115.312 18.96C115.966 18.7733 116.639 18.68 117.332 18.68C118.132 18.68 118.766 18.8133 119.232 19.08C119.699 19.3333 120.032 19.7467 120.232 20.32C120.432 20.88 120.532 21.64 120.532 22.6V27.3L121.892 27.9ZM128.434 18.68C129.794 18.68 130.894 19.1067 131.734 19.96C132.587 20.8 133.014 22.0533 133.014 23.72V24.52H125.174C125.24 25.4133 125.4 26.1 125.654 26.58C125.92 27.0467 126.3 27.3733 126.794 27.56C127.3 27.7467 127.994 27.84 128.874 27.84C130.14 27.84 131.394 27.6867 132.634 27.38V28.82C132.114 28.9533 131.507 29.06 130.814 29.14C130.12 29.2333 129.46 29.28 128.834 29.28C127.06 29.28 125.714 28.88 124.794 28.08C123.874 27.28 123.414 25.9133 123.414 23.98C123.414 22.18 123.867 20.8467 124.774 19.98C125.68 19.1133 126.9 18.68 128.434 18.68ZM128.334 20.12C127.294 20.12 126.534 20.3533 126.054 20.82C125.574 21.2867 125.287 22.0467 125.194 23.1H131.234C131.154 22.1133 130.88 21.3733 130.414 20.88C129.947 20.3733 129.254 20.12 128.334 20.12ZM137.55 27.3L138.91 27.9V29H134.51V27.9L135.87 27.3V16.5L134.51 15.94V14.8H137.55V27.3Z" fill="black"/>
<path d="M49.605 42.395L50.419 42.054V36.466L49.605 36.147V35.52H54.082C54.7493 35.52 55.2407 35.6813 55.556 36.004C55.8787 36.3193 56.04 36.7667 56.04 37.346C56.04 37.852 55.9337 38.2627 55.721 38.578C55.5157 38.886 55.2187 39.0913 54.83 39.194C55.2407 39.26 55.5633 39.447 55.798 39.755C56.0327 40.0557 56.15 40.492 56.15 41.064C56.15 41.702 55.9887 42.186 55.666 42.516C55.3433 42.8387 54.8667 43 54.236 43H49.605V42.395ZM53.873 38.842C54.2983 38.842 54.599 38.7467 54.775 38.556C54.9583 38.358 55.05 38.0317 55.05 37.577C55.05 37.1297 54.9657 36.807 54.797 36.609C54.6283 36.411 54.3497 36.312 53.961 36.312H51.365V38.842H53.873ZM54.049 42.208C54.4377 42.208 54.72 42.109 54.896 41.911C55.072 41.7057 55.16 41.3757 55.16 40.921C55.16 40.459 55.0683 40.129 54.885 39.931C54.7017 39.733 54.3937 39.634 53.961 39.634H51.365V42.208H54.049ZM63.1346 42.395V43H61.8256L61.5396 42.208C61.2389 42.516 60.9126 42.7433 60.5606 42.89C60.2159 43.0367 59.8272 43.11 59.3946 43.11C58.6906 43.11 58.1699 42.9743 57.8326 42.703C57.4952 42.4317 57.3266 41.9917 57.3266 41.383C57.3266 40.7377 57.5282 40.272 57.9316 39.986C58.3349 39.6927 58.9839 39.546 59.8786 39.546C60.2306 39.546 60.5386 39.579 60.8026 39.645C61.0739 39.7037 61.2939 39.777 61.4626 39.865V39.436C61.4626 39.0987 61.4186 38.8383 61.3306 38.655C61.2499 38.4643 61.0996 38.3287 60.8796 38.248C60.6669 38.16 60.3552 38.116 59.9446 38.116C59.2039 38.116 58.4339 38.204 57.6346 38.38V37.588C58.4486 37.412 59.2259 37.324 59.9666 37.324C60.6559 37.324 61.1729 37.3937 61.5176 37.533C61.8696 37.6723 62.1006 37.874 62.2106 38.138C62.3279 38.402 62.3866 38.7687 62.3866 39.238V42.065L63.1346 42.395ZM58.2946 41.317C58.2946 41.6763 58.3826 41.933 58.5586 42.087C58.7419 42.241 59.0719 42.318 59.5486 42.318C59.9006 42.318 60.2379 42.2557 60.5606 42.131C60.8906 41.999 61.1912 41.8193 61.4626 41.592V40.492C61.0519 40.3747 60.5569 40.316 59.9776 40.316C59.3396 40.316 58.8996 40.3967 58.6576 40.558C58.4156 40.7193 58.2946 40.9723 58.2946 41.317ZM67.8684 37.302C68.1911 37.302 68.4258 37.379 68.5724 37.533C68.7191 37.687 68.7924 37.9253 68.7924 38.248C68.7924 38.842 68.4551 39.139 67.7804 39.139L67.3404 38.149C67.0544 38.2223 66.7648 38.325 66.4714 38.457C66.1854 38.5817 65.9288 38.7173 65.7014 38.864V42.065L66.7244 42.395V43H64.0294V42.395L64.7774 42.065V38.413L64.0294 38.105V37.478H65.2504L65.6684 38.138C66.0351 37.8667 66.4091 37.6613 66.7904 37.522C67.1718 37.3753 67.5311 37.302 67.8684 37.302ZM73.4114 37.302C73.7341 37.302 73.9687 37.379 74.1154 37.533C74.2621 37.687 74.3354 37.9253 74.3354 38.248C74.3354 38.842 73.9981 39.139 73.3234 39.139L72.8834 38.149C72.5974 38.2223 72.3077 38.325 72.0144 38.457C71.7284 38.5817 71.4717 38.7173 71.2444 38.864V42.065L72.2674 42.395V43H69.5724V42.395L70.3204 42.065V38.413L69.5724 38.105V37.478H70.7934L71.2114 38.138C71.5781 37.8667 71.9521 37.6613 72.3334 37.522C72.7147 37.3753 73.0741 37.302 73.4114 37.302ZM80.9344 42.395V43H79.6254L79.3394 42.208C79.0387 42.516 78.7124 42.7433 78.3604 42.89C78.0157 43.0367 77.627 43.11 77.1944 43.11C76.4904 43.11 75.9697 42.9743 75.6324 42.703C75.295 42.4317 75.1264 41.9917 75.1264 41.383C75.1264 40.7377 75.328 40.272 75.7314 39.986C76.1347 39.6927 76.7837 39.546 77.6784 39.546C78.0304 39.546 78.3384 39.579 78.6024 39.645C78.8737 39.7037 79.0937 39.777 79.2624 39.865V39.436C79.2624 39.0987 79.2184 38.8383 79.1304 38.655C79.0497 38.4643 78.8994 38.3287 78.6794 38.248C78.4667 38.16 78.155 38.116 77.7444 38.116C77.0037 38.116 76.2337 38.204 75.4344 38.38V37.588C76.2484 37.412 77.0257 37.324 77.7664 37.324C78.4557 37.324 78.9727 37.3937 79.3174 37.533C79.6694 37.6723 79.9004 37.874 80.0104 38.138C80.1277 38.402 80.1864 38.7687 80.1864 39.238V42.065L80.9344 42.395ZM76.0944 41.317C76.0944 41.6763 76.1824 41.933 76.3584 42.087C76.5417 42.241 76.8717 42.318 77.3484 42.318C77.7004 42.318 78.0377 42.2557 78.3604 42.131C78.6904 41.999 78.991 41.8193 79.2624 41.592V40.492C78.8517 40.3747 78.3567 40.316 77.7774 40.316C77.1394 40.316 76.6994 40.3967 76.4574 40.558C76.2154 40.7193 76.0944 40.9723 76.0944 41.317ZM91.9052 42.395V43H90.2332V39.359C90.2332 38.9263 90.1379 38.6147 89.9472 38.424C89.7566 38.226 89.4742 38.127 89.1002 38.127C88.8436 38.127 88.6052 38.16 88.3852 38.226C88.1726 38.2847 87.8206 38.402 87.3292 38.578V42.065L88.0772 42.395V43H86.4052V39.359C86.4052 38.9263 86.3099 38.6147 86.1192 38.424C85.9286 38.226 85.6462 38.127 85.2722 38.127C85.0229 38.127 84.7882 38.16 84.5682 38.226C84.3556 38.2847 83.9999 38.402 83.5012 38.578V42.065L84.2492 42.395V43H81.8292V42.395L82.5772 42.065V38.413L81.8292 38.105V37.478H83.0502L83.3362 37.929C83.7689 37.709 84.1576 37.555 84.5022 37.467C84.8469 37.3717 85.2026 37.324 85.5692 37.324C85.9359 37.324 86.2402 37.3753 86.4822 37.478C86.7316 37.5807 86.9369 37.742 87.0982 37.962C87.5382 37.7347 87.9342 37.5733 88.2862 37.478C88.6456 37.3753 89.0159 37.324 89.3972 37.324C89.8372 37.324 90.1856 37.3973 90.4422 37.544C90.6989 37.6833 90.8822 37.9107 90.9922 38.226C91.1022 38.534 91.1572 38.952 91.1572 39.48V42.065L91.9052 42.395ZM95.503 37.324C96.251 37.324 96.856 37.5587 97.318 38.028C97.7873 38.49 98.022 39.1793 98.022 40.096V40.536H93.71C93.7467 41.0273 93.8347 41.405 93.974 41.669C94.1207 41.9257 94.3297 42.1053 94.601 42.208C94.8797 42.3107 95.261 42.362 95.745 42.362C96.4417 42.362 97.131 42.2777 97.813 42.109V42.901C97.527 42.9743 97.1933 43.033 96.812 43.077C96.4307 43.1283 96.0677 43.154 95.723 43.154C94.7477 43.154 94.007 42.934 93.501 42.494C92.995 42.054 92.742 41.3023 92.742 40.239C92.742 39.249 92.9913 38.5157 93.49 38.039C93.9887 37.5623 94.6597 37.324 95.503 37.324ZM95.448 38.116C94.876 38.116 94.458 38.2443 94.194 38.501C93.93 38.7577 93.7723 39.1757 93.721 39.755H97.043C96.999 39.2123 96.8487 38.8053 96.592 38.534C96.3353 38.2553 95.954 38.116 95.448 38.116ZM105.268 42.395V43H103.596V39.359C103.596 38.9263 103.49 38.6147 103.277 38.424C103.072 38.226 102.768 38.127 102.364 38.127C102.108 38.127 101.855 38.16 101.605 38.226C101.363 38.292 101.008 38.4093 100.538 38.578V42.065L101.396 42.395V43H98.8664V42.395L99.6144 42.065V38.413L98.8664 38.105V37.478H100.087L100.373 37.929C100.784 37.7163 101.173 37.5623 101.539 37.467C101.906 37.3717 102.28 37.324 102.661 37.324C103.123 37.324 103.49 37.3973 103.761 37.544C104.033 37.6833 104.227 37.9107 104.344 38.226C104.462 38.534 104.52 38.952 104.52 39.48V42.065L105.268 42.395ZM108.767 43.088C108.063 43.088 107.557 42.945 107.249 42.659C106.949 42.373 106.798 41.889 106.798 41.207V38.248H105.94V37.632L106.798 37.478L107.128 35.883H107.722V37.478L109.603 37.489V38.259L107.722 38.248V41.207C107.722 41.5077 107.759 41.735 107.832 41.889C107.906 42.043 108.027 42.1493 108.195 42.208C108.364 42.2667 108.61 42.296 108.932 42.296C109.182 42.296 109.442 42.2703 109.713 42.219V42.989C109.449 43.055 109.134 43.088 108.767 43.088ZM113.293 37.324C114.136 37.324 114.811 37.5587 115.317 38.028C115.83 38.49 116.087 39.227 116.087 40.239C116.087 41.251 115.83 41.9917 115.317 42.461C114.811 42.923 114.136 43.154 113.293 43.154C112.45 43.154 111.771 42.923 111.258 42.461C110.752 41.9917 110.499 41.251 110.499 40.239C110.499 39.227 110.752 38.49 111.258 38.028C111.771 37.5587 112.45 37.324 113.293 37.324ZM113.293 38.116C112.853 38.116 112.501 38.1783 112.237 38.303C111.98 38.4277 111.786 38.644 111.654 38.952C111.529 39.26 111.467 39.689 111.467 40.239C111.467 40.789 111.529 41.218 111.654 41.526C111.786 41.834 111.98 42.0503 112.237 42.175C112.501 42.2997 112.853 42.362 113.293 42.362C113.733 42.362 114.081 42.2997 114.338 42.175C114.602 42.0503 114.796 41.834 114.921 41.526C115.053 41.218 115.119 40.789 115.119 40.239C115.119 39.689 115.053 39.26 114.921 38.952C114.796 38.644 114.602 38.4277 114.338 38.303C114.081 38.1783 113.733 38.116 113.293 38.116ZM120.111 39.876C120.617 39.9713 120.995 40.0777 121.244 40.195C121.493 40.3123 121.662 40.4663 121.75 40.657C121.838 40.8403 121.882 41.1007 121.882 41.438C121.882 41.856 121.805 42.1897 121.651 42.439C121.504 42.681 121.24 42.8607 120.859 42.978C120.485 43.0953 119.953 43.154 119.264 43.154C118.912 43.154 118.571 43.1357 118.241 43.099C117.911 43.0697 117.511 43.0147 117.042 42.934V41.35H117.702L118.021 42.285C118.41 42.351 118.835 42.384 119.297 42.384C119.752 42.384 120.093 42.362 120.32 42.318C120.547 42.2667 120.701 42.186 120.782 42.076C120.87 41.9587 120.914 41.79 120.914 41.57C120.914 41.372 120.874 41.2253 120.793 41.13C120.712 41.0273 120.591 40.954 120.43 40.91C120.276 40.866 120.005 40.8147 119.616 40.756L118.868 40.624C118.347 40.5287 117.955 40.4223 117.691 40.305C117.427 40.1877 117.24 40.03 117.13 39.832C117.027 39.6267 116.976 39.3407 116.976 38.974C116.976 38.5707 117.046 38.2517 117.185 38.017C117.332 37.7823 117.581 37.61 117.933 37.5C118.285 37.3827 118.78 37.324 119.418 37.324C120.056 37.324 120.811 37.3973 121.684 37.544V39.073H121.046L120.749 38.215C120.265 38.1343 119.807 38.094 119.374 38.094C118.993 38.094 118.699 38.1197 118.494 38.171C118.289 38.2223 118.146 38.303 118.065 38.413C117.984 38.523 117.944 38.6807 117.944 38.886C117.944 39.0913 117.988 39.2453 118.076 39.348C118.164 39.4433 118.307 39.5203 118.505 39.579C118.703 39.6303 119.048 39.6963 119.539 39.777C119.722 39.799 119.913 39.832 120.111 39.876ZM132.449 37.467H131.8L131.514 36.312H127.774V38.842H129.963L130.128 37.995H130.733V40.481H130.128L129.963 39.634H127.774V42.208H131.514L131.8 40.943H132.449V43H126.014V42.395L126.828 42.065V36.466L126.014 36.147V35.52H132.449V37.467ZM135.203 42.065L135.951 42.395V43H133.531V42.395L134.279 42.065V36.125L133.531 35.817V35.19H135.203V42.065ZM139.546 37.324C140.294 37.324 140.899 37.5587 141.361 38.028C141.83 38.49 142.065 39.1793 142.065 40.096V40.536H137.753C137.79 41.0273 137.878 41.405 138.017 41.669C138.164 41.9257 138.373 42.1053 138.644 42.208C138.923 42.3107 139.304 42.362 139.788 42.362C140.485 42.362 141.174 42.2777 141.856 42.109V42.901C141.57 42.9743 141.236 43.033 140.855 43.077C140.474 43.1283 140.111 43.154 139.766 43.154C138.791 43.154 138.05 42.934 137.544 42.494C137.038 42.054 136.785 41.3023 136.785 40.239C136.785 39.249 137.034 38.5157 137.533 38.039C138.032 37.5623 138.703 37.324 139.546 37.324ZM139.491 38.116C138.919 38.116 138.501 38.2443 138.237 38.501C137.973 38.7577 137.815 39.1757 137.764 39.755H141.086C141.042 39.2123 140.892 38.8053 140.635 38.534C140.378 38.2553 139.997 38.116 139.491 38.116ZM139.953 36.708H139.029L140.217 34.684H141.537L139.953 36.708ZM145.516 43.088C144.812 43.088 144.306 42.945 143.998 42.659C143.698 42.373 143.547 41.889 143.547 41.207V38.248H142.689V37.632L143.547 37.478L143.877 35.883H144.471V37.478L146.352 37.489V38.259L144.471 38.248V41.207C144.471 41.5077 144.508 41.735 144.581 41.889C144.655 42.043 144.776 42.1493 144.944 42.208C145.113 42.2667 145.359 42.296 145.681 42.296C145.931 42.296 146.191 42.2703 146.462 42.219V42.989C146.198 43.055 145.883 43.088 145.516 43.088ZM151.249 37.302C151.572 37.302 151.807 37.379 151.953 37.533C152.1 37.687 152.173 37.9253 152.173 38.248C152.173 38.842 151.836 39.139 151.161 39.139L150.721 38.149C150.435 38.2223 150.146 38.325 149.852 38.457C149.566 38.5817 149.31 38.7173 149.082 38.864V42.065L150.105 42.395V43H147.41V42.395L148.158 42.065V38.413L147.41 38.105V37.478H148.631L149.049 38.138C149.416 37.8667 149.79 37.6613 150.171 37.522C150.553 37.3753 150.912 37.302 151.249 37.302ZM154.075 35.069C154.303 35.069 154.482 35.135 154.614 35.267C154.754 35.399 154.823 35.586 154.823 35.828C154.823 36.07 154.754 36.257 154.614 36.389C154.482 36.521 154.303 36.587 154.075 36.587C153.848 36.587 153.665 36.521 153.525 36.389C153.393 36.257 153.327 36.07 153.327 35.828C153.327 35.586 153.393 35.399 153.525 35.267C153.665 35.135 153.848 35.069 154.075 35.069ZM154.625 42.065L155.373 42.395V43H152.953V42.395L153.701 42.065V38.413L152.953 38.105V37.478H154.625V42.065ZM159.144 37.324C159.753 37.324 160.182 37.401 160.431 37.555C160.68 37.709 160.805 37.9547 160.805 38.292C160.805 38.886 160.453 39.183 159.749 39.183L159.265 38.083C158.686 38.083 158.249 38.149 157.956 38.281C157.663 38.413 157.457 38.6293 157.34 38.93C157.23 39.2233 157.175 39.6523 157.175 40.217C157.175 40.7963 157.237 41.24 157.362 41.548C157.494 41.856 157.692 42.0687 157.956 42.186C158.227 42.3033 158.594 42.362 159.056 42.362C159.371 42.362 159.657 42.3437 159.914 42.307C160.171 42.263 160.438 42.1897 160.717 42.087V42.879C160.49 42.967 160.222 43.033 159.914 43.077C159.613 43.1283 159.313 43.154 159.012 43.154C158.103 43.154 157.406 42.9377 156.922 42.505C156.445 42.065 156.207 41.3133 156.207 40.25C156.207 39.216 156.449 38.4717 156.933 38.017C157.424 37.555 158.161 37.324 159.144 37.324ZM164.49 37.324C165.333 37.324 166.008 37.5587 166.514 38.028C167.027 38.49 167.284 39.227 167.284 40.239C167.284 41.251 167.027 41.9917 166.514 42.461C166.008 42.923 165.333 43.154 164.49 43.154C163.647 43.154 162.968 42.923 162.455 42.461C161.949 41.9917 161.696 41.251 161.696 40.239C161.696 39.227 161.949 38.49 162.455 38.028C162.968 37.5587 163.647 37.324 164.49 37.324ZM164.49 38.116C164.05 38.116 163.698 38.1783 163.434 38.303C163.177 38.4277 162.983 38.644 162.851 38.952C162.726 39.26 162.664 39.689 162.664 40.239C162.664 40.789 162.726 41.218 162.851 41.526C162.983 41.834 163.177 42.0503 163.434 42.175C163.698 42.2997 164.05 42.362 164.49 42.362C164.93 42.362 165.278 42.2997 165.535 42.175C165.799 42.0503 165.993 41.834 166.118 41.526C166.25 41.218 166.316 40.789 166.316 40.239C166.316 39.689 166.25 39.26 166.118 38.952C165.993 38.644 165.799 38.4277 165.535 38.303C165.278 38.1783 164.93 38.116 164.49 38.116ZM171.308 39.876C171.814 39.9713 172.192 40.0777 172.441 40.195C172.691 40.3123 172.859 40.4663 172.947 40.657C173.035 40.8403 173.079 41.1007 173.079 41.438C173.079 41.856 173.002 42.1897 172.848 42.439C172.702 42.681 172.438 42.8607 172.056 42.978C171.682 43.0953 171.151 43.154 170.461 43.154C170.109 43.154 169.768 43.1357 169.438 43.099C169.108 43.0697 168.709 43.0147 168.239 42.934V41.35H168.899L169.218 42.285C169.607 42.351 170.032 42.384 170.494 42.384C170.949 42.384 171.29 42.362 171.517 42.318C171.745 42.2667 171.899 42.186 171.979 42.076C172.067 41.9587 172.111 41.79 172.111 41.57C172.111 41.372 172.071 41.2253 171.99 41.13C171.91 41.0273 171.789 40.954 171.627 40.91C171.473 40.866 171.202 40.8147 170.813 40.756L170.065 40.624C169.545 40.5287 169.152 40.4223 168.888 40.305C168.624 40.1877 168.437 40.03 168.327 39.832C168.225 39.6267 168.173 39.3407 168.173 38.974C168.173 38.5707 168.243 38.2517 168.382 38.017C168.529 37.7823 168.778 37.61 169.13 37.5C169.482 37.3827 169.977 37.324 170.615 37.324C171.253 37.324 172.009 37.3973 172.881 37.544V39.073H172.243L171.946 38.215C171.462 38.1343 171.004 38.094 170.571 38.094C170.19 38.094 169.897 38.1197 169.691 38.171C169.486 38.2223 169.343 38.303 169.262 38.413C169.182 38.523 169.141 38.6807 169.141 38.886C169.141 39.0913 169.185 39.2453 169.273 39.348C169.361 39.4433 169.504 39.5203 169.702 39.579C169.9 39.6303 170.245 39.6963 170.736 39.777C170.92 39.799 171.11 39.832 171.308 39.876Z" fill="black"/>
<mask id="path-3-inside-1" fill="white">
<path d="M25 38L23 33L13 33L12 15L8.5 15L8 15L8.00001 27.5L8.00001 38L16.5 38L25 38Z"/>
</mask>
<path d="M23 33L32.2848 29.2861L29.7703 23L23 23L23 33ZM25 38L25 48L39.7703 48L34.2848 34.2861L25 38ZM13 33L3.0154 33.5547L3.54014 43L13 43L13 33ZM12 15L21.9846 14.4453L21.4599 5L12 5L12 15ZM8 15L8.00002 5L-2 4.99998L-2 15L8 15ZM8.5 15L8.49998 25L8.5 25L8.5 15ZM8.00001 27.5L18 27.5L18 27.5L8.00001 27.5ZM8.00001 38L-1.99999 38L-1.99999 48L8.00001 48L8.00001 38ZM16.5 38L16.5 28L16.5 28L16.5 38ZM13.7152 36.7139L15.7152 41.7139L34.2848 34.2861L32.2848 29.2861L13.7152 36.7139ZM13 43L23 43L23 23L13 23L13 43ZM22.9846 32.4453L21.9846 14.4453L2.0154 15.5547L3.0154 33.5547L22.9846 32.4453ZM7.99998 25L8.49998 25L8.50002 5L8.00002 5L7.99998 25ZM8.5 25L12 25L12 5L8.49999 5L8.5 25ZM-2 15L-1.99999 27.5L18 27.5L18 15L-2 15ZM-1.99999 27.5L-1.99999 38L18 38L18 27.5L-1.99999 27.5ZM8.00001 48L16.5 48L16.5 28L8.00001 28L8.00001 48ZM16.5 48L25 48L25 28L16.5 28L16.5 48Z" fill="#C1482E" mask="url(#path-3-inside-1)"/>
<mask id="path-5-inside-2" fill="white">
<path d="M21.5 15L23.5 20L33.5 20L34.5 30L35.5 38L39 38L39 28L39 15L31.5 15L21.5 15Z"/>
</mask>
<path d="M23.5 20L14.2152 23.7139L16.7297 30L23.5 30L23.5 20ZM21.5 15L21.5 4.99999L6.72965 4.99997L12.2152 18.7139L21.5 15ZM39 38L39 48L49 48L49 38L39 38ZM35.5 38L25.5772 39.2403L26.6722 48L35.5 48L35.5 38ZM33.5 20L43.4504 19.005L42.5499 10L33.5 10L33.5 20ZM34.5 30L24.5496 30.995L24.5619 31.1179L24.5772 31.2403L34.5 30ZM39 28L29 28L29 28L39 28ZM39 15L49 15L49 5.00001L39 5.00001L39 15ZM31.5 15L31.5 25L31.5 25L31.5 15ZM32.7848 16.2861L30.7848 11.2861L12.2152 18.7139L14.2152 23.7139L32.7848 16.2861ZM39 28L35.5 28L35.5 48L39 48L39 28ZM33.5 10L23.5 9.99999L23.5 30L33.5 30L33.5 10ZM23.5496 20.995L24.5496 30.995L44.4504 29.005L43.4504 19.005L23.5496 20.995ZM24.5772 31.2403L25.5772 39.2403L45.4228 36.7596L44.4228 28.7597L24.5772 31.2403ZM49 38L49 28L29 28L29 38L49 38ZM49 28L49 15L29 15L29 28L49 28ZM39 5.00001L31.5 5.00001L31.5 25L39 25L39 5.00001ZM31.5 5.00001L21.5 4.99999L21.5 25L31.5 25L31.5 5.00001Z" fill="#C1482E" mask="url(#path-5-inside-2)"/>
<mask id="path-7-inside-3" fill="white">
<path d="M33 47.9999L25 29.9999L16 30L14 3.99998L22 22.9999L31 22.9999L33 47.9999Z"/>
</mask>
<path d="M25 29.9999L52.4143 17.8158L44.4961 -0.000161176L24.9998 -5.12681e-05L25 29.9999ZM33 47.9999L5.58565 60.1841L62.9045 45.6076L33 47.9999ZM31 22.9999L60.9045 20.6076L58.6958 -7.00005L31 -7.00005L31 22.9999ZM22 22.9999L-5.64905 34.6417L2.08077 52.9999L22 52.9999L22 22.9999ZM14 3.99998L41.649 -7.64176L-15.9116 6.30088L14 3.99998ZM16 30L-13.9116 32.3009L-11.7809 60.0002L16.0002 60L16 30ZM-2.41435 42.1841L5.58565 60.1841L60.4143 35.8158L52.4143 17.8158L-2.41435 42.1841ZM62.9045 45.6076L60.9045 20.6076L1.09554 25.3923L3.09554 50.3923L62.9045 45.6076ZM31 -7.00005L22 -7.00005L22 52.9999L31 52.9999L31 -7.00005ZM49.649 11.3582L41.649 -7.64176L-13.6491 15.6417L-5.64905 34.6417L49.649 11.3582ZM-15.9116 6.30088L-13.9116 32.3009L45.9116 27.6991L43.9116 1.69908L-15.9116 6.30088ZM16.0002 60L25.0002 59.9999L24.9998 -5.12681e-05L15.9998 -5.31804e-07L16.0002 60Z" fill="#3A3434" mask="url(#path-7-inside-3)"/>
</svg>
