<svg width="186" height="49" viewBox="0 0 186 49" fill="none" xmlns="http://www.w3.org/2000/svg">
<mask id="path-1-inside-1" fill="white">
<path d="M18.5714 6.99984L18.5714 32.9998L24.5 32.9998L30 32.9998L31.5 36.4998L33.5 40.9999L21 40.9998L11.0714 40.9998L11.0714 24.9712L11.0714 6.99985L15 6.99984L18.5714 6.99984Z"/>
</mask>
<path d="M18.5714 32.9998L8.57141 32.9998L8.57141 42.9998L18.5714 42.9998L18.5714 32.9998ZM18.5714 6.99984L28.5714 6.99984L28.5714 -3.00016L18.5714 -3.00016L18.5714 6.99984ZM11.0714 6.99985L11.0714 -3.00015L1.07142 -3.00014L1.07142 6.99985L11.0714 6.99985ZM15 6.99984L15 -3.00016L15 -3.00016L15 6.99984ZM11.0714 24.9712L1.07141 24.9712L1.07141 24.9712L11.0714 24.9712ZM11.0714 40.9998L1.07142 40.9998L1.07142 50.9998L11.0714 50.9998L11.0714 40.9998ZM21 40.9998L21 50.9998L21 50.9998L21 40.9998ZM33.5 40.9999L33.5 50.9999L48.8876 50.9999L42.6381 36.9385L33.5 40.9999ZM24.5 32.9998L24.5 42.9998L24.5 42.9998L24.5 32.9998ZM30 32.9998L39.1915 29.0606L36.594 22.9998L30 22.9998L30 32.9998ZM31.5 36.4998L22.3086 40.439L22.3348 40.5003L22.3619 40.5612L31.5 36.4998ZM28.5714 32.9998L28.5714 6.99984L8.57141 6.99984L8.57141 32.9998L28.5714 32.9998ZM11.0714 16.9998L15 16.9998L15 -3.00016L11.0714 -3.00015L11.0714 16.9998ZM15 16.9998L18.5714 16.9998L18.5714 -3.00016L15 -3.00016L15 16.9998ZM1.07142 6.99985L1.07141 24.9712L21.0714 24.9712L21.0714 6.99985L1.07142 6.99985ZM1.07141 24.9712L1.07142 40.9998L21.0714 40.9998L21.0714 24.9712L1.07141 24.9712ZM11.0714 50.9998L21 50.9998L21 30.9998L11.0714 30.9998L11.0714 50.9998ZM21 50.9998L33.5 50.9999L33.5 30.9999L21 30.9998L21 50.9998ZM18.5714 42.9998L24.5 42.9998L24.5 22.9998L18.5714 22.9998L18.5714 42.9998ZM24.5 42.9998L30 42.9998L30 22.9998L24.5 22.9998L24.5 42.9998ZM20.8086 36.939L22.3086 40.439L40.6915 32.5606L39.1915 29.0606L20.8086 36.939ZM22.3619 40.5612L24.3619 45.0612L42.6381 36.9385L40.6381 32.4385L22.3619 40.5612Z" fill="#403C3C" mask="url(#path-1-inside-1)"/>
<mask id="path-3-inside-2" fill="white">
<path d="M44.9225 41.0378L44.9272 15.0378L38.9986 15.0368L33.4986 15.0358L31.9992 11.5355L30 7.03516L42.5 7.0374L52.4286 7.03919L52.4257 23.0678L52.4225 41.0392L48.4939 41.0385L44.9225 41.0378Z"/>
</mask>
<path d="M44.9272 15.0378L54.9272 15.0396L54.9289 5.03962L44.9289 5.03784L44.9272 15.0378ZM44.9225 41.0378L34.9225 41.036L34.9208 51.036L44.9208 51.0378L44.9225 41.0378ZM52.4225 41.0392L52.4208 51.0392L62.4207 51.0409L62.4225 41.0409L52.4225 41.0392ZM48.4939 41.0385L48.4922 51.0385L48.4922 51.0385L48.4939 41.0385ZM52.4257 23.0678L62.4257 23.0696L62.4257 23.0696L52.4257 23.0678ZM52.4286 7.03919L62.4286 7.04097L62.4304 -2.959L52.4304 -2.96081L52.4286 7.03919ZM42.5 7.0374L42.5018 -2.9626L42.5018 -2.9626L42.5 7.0374ZM30 7.03516L30.0018 -2.96484L14.6142 -2.96759L20.8611 11.0949L30 7.03516ZM38.9986 15.0368L39.0004 5.03679L39.0004 5.03679L38.9986 15.0368ZM33.4986 15.0358L24.3064 18.9734L26.9028 25.0346L33.4968 25.0358L33.4986 15.0358ZM31.9992 11.5355L41.1913 7.59799L41.1651 7.53672L41.138 7.47581L31.9992 11.5355ZM34.9272 15.0361L34.9225 41.036L54.9225 41.0396L54.9272 15.0396L34.9272 15.0361ZM52.4243 31.0392L48.4957 31.0385L48.4922 51.0385L52.4208 51.0392L52.4243 31.0392ZM48.4957 31.0385L44.9243 31.0378L44.9208 51.0378L48.4922 51.0385L48.4957 31.0385ZM62.4225 41.0409L62.4257 23.0696L42.4257 23.066L42.4225 41.0374L62.4225 41.0409ZM62.4257 23.0696L62.4286 7.04097L42.4286 7.03741L42.4257 23.066L62.4257 23.0696ZM52.4304 -2.96081L42.5018 -2.9626L42.4982 17.0374L52.4268 17.0392L52.4304 -2.96081ZM42.5018 -2.9626L30.0018 -2.96484L29.9982 17.0352L42.4982 17.0374L42.5018 -2.9626ZM44.9289 5.03784L39.0004 5.03679L38.9968 25.0368L44.9254 25.0378L44.9289 5.03784ZM39.0004 5.03679L33.5004 5.03581L33.4968 25.0358L38.9968 25.0368L39.0004 5.03679ZM42.6907 11.0983L41.1913 7.59799L22.807 15.4731L24.3064 18.9734L42.6907 11.0983ZM41.138 7.47581L39.1388 2.97543L20.8611 11.0949L22.8603 15.5953L41.138 7.47581Z" fill="#403C3C" mask="url(#path-3-inside-2)"/>
<mask id="path-5-inside-3" fill="white">
<path d="M39.0916 40.9999L33.0916 27.2457L24.0916 27.2457L24.0916 6.99985L30.0916 20.2457L39.0916 20.2457L39.0916 40.9999Z"/>
</mask>
<path d="M33.0916 27.2457L60.5891 15.2504L52.7348 -2.75443L33.0914 -2.75432L33.0916 27.2457ZM39.0916 40.9999L11.5941 52.9951L69.0916 40.9999L39.0916 40.9999ZM39.0916 20.2457L69.0916 20.2457L69.0916 -9.75431L39.0916 -9.75432L39.0916 20.2457ZM30.0916 20.2457L2.76441 32.6241L10.7465 50.2457L30.0916 50.2457L30.0916 20.2457ZM24.0916 6.99985L51.4187 -5.37861L-5.90843 6.99985L24.0916 6.99985ZM24.0916 27.2457L-5.90843 27.2457L-5.90843 57.2459L24.0917 57.2457L24.0916 27.2457ZM5.59405 39.241L11.5941 52.9951L66.5891 29.0046L60.5891 15.2504L5.59405 39.241ZM69.0916 40.9999L69.0916 20.2457L9.09156 20.2457L9.09157 40.9999L69.0916 40.9999ZM39.0916 -9.75432L30.0916 -9.75433L30.0916 50.2457L39.0916 50.2457L39.0916 -9.75432ZM57.4187 7.86721L51.4187 -5.37861L-3.23559 19.3783L2.76441 32.6241L57.4187 7.86721ZM-5.90843 6.99985L-5.90843 27.2457L54.0916 27.2457L54.0916 6.99985L-5.90843 6.99985ZM24.0917 57.2457L33.0917 57.2457L33.0914 -2.75432L24.0914 -2.75427L24.0917 57.2457Z" fill="#DE583B" mask="url(#path-5-inside-3)"/>
<path d="M61.605 37.395L62.419 37.054V31.466L61.605 31.147V30.52H66.082C66.7493 30.52 67.2407 30.6813 67.556 31.004C67.8787 31.3193 68.04 31.7667 68.04 32.346C68.04 32.852 67.9337 33.2627 67.721 33.578C67.5157 33.886 67.2187 34.0913 66.83 34.194C67.2407 34.26 67.5633 34.447 67.798 34.755C68.0327 35.0557 68.15 35.492 68.15 36.064C68.15 36.702 67.9887 37.186 67.666 37.516C67.3433 37.8387 66.8667 38 66.236 38H61.605V37.395ZM65.873 33.842C66.2983 33.842 66.599 33.7467 66.775 33.556C66.9583 33.358 67.05 33.0317 67.05 32.577C67.05 32.1297 66.9657 31.807 66.797 31.609C66.6283 31.411 66.3497 31.312 65.961 31.312H63.365V33.842H65.873ZM66.049 37.208C66.4377 37.208 66.72 37.109 66.896 36.911C67.072 36.7057 67.16 36.3757 67.16 35.921C67.16 35.459 67.0683 35.129 66.885 34.931C66.7017 34.733 66.3937 34.634 65.961 34.634H63.365V37.208H66.049ZM75.1346 37.395V38H73.8256L73.5396 37.208C73.2389 37.516 72.9126 37.7433 72.5606 37.89C72.2159 38.0367 71.8272 38.11 71.3946 38.11C70.6906 38.11 70.1699 37.9743 69.8326 37.703C69.4952 37.4317 69.3266 36.9917 69.3266 36.383C69.3266 35.7377 69.5282 35.272 69.9316 34.986C70.3349 34.6927 70.9839 34.546 71.8786 34.546C72.2306 34.546 72.5386 34.579 72.8026 34.645C73.0739 34.7037 73.2939 34.777 73.4626 34.865V34.436C73.4626 34.0987 73.4186 33.8383 73.3306 33.655C73.2499 33.4643 73.0996 33.3287 72.8796 33.248C72.6669 33.16 72.3552 33.116 71.9446 33.116C71.2039 33.116 70.4339 33.204 69.6346 33.38V32.588C70.4486 32.412 71.2259 32.324 71.9666 32.324C72.6559 32.324 73.1729 32.3937 73.5176 32.533C73.8696 32.6723 74.1006 32.874 74.2106 33.138C74.3279 33.402 74.3866 33.7687 74.3866 34.238V37.065L75.1346 37.395ZM70.2946 36.317C70.2946 36.6763 70.3826 36.933 70.5586 37.087C70.7419 37.241 71.0719 37.318 71.5486 37.318C71.9006 37.318 72.2379 37.2557 72.5606 37.131C72.8906 36.999 73.1912 36.8193 73.4626 36.592V35.492C73.0519 35.3747 72.5569 35.316 71.9776 35.316C71.3396 35.316 70.8996 35.3967 70.6576 35.558C70.4156 35.7193 70.2946 35.9723 70.2946 36.317ZM79.8684 32.302C80.1911 32.302 80.4258 32.379 80.5724 32.533C80.7191 32.687 80.7924 32.9253 80.7924 33.248C80.7924 33.842 80.4551 34.139 79.7804 34.139L79.3404 33.149C79.0544 33.2223 78.7648 33.325 78.4714 33.457C78.1854 33.5817 77.9288 33.7173 77.7014 33.864V37.065L78.7244 37.395V38H76.0294V37.395L76.7774 37.065V33.413L76.0294 33.105V32.478H77.2504L77.6684 33.138C78.0351 32.8667 78.4091 32.6613 78.7904 32.522C79.1718 32.3753 79.5311 32.302 79.8684 32.302ZM85.4114 32.302C85.7341 32.302 85.9687 32.379 86.1154 32.533C86.2621 32.687 86.3354 32.9253 86.3354 33.248C86.3354 33.842 85.9981 34.139 85.3234 34.139L84.8834 33.149C84.5974 33.2223 84.3077 33.325 84.0144 33.457C83.7284 33.5817 83.4717 33.7173 83.2444 33.864V37.065L84.2674 37.395V38H81.5724V37.395L82.3204 37.065V33.413L81.5724 33.105V32.478H82.7934L83.2114 33.138C83.5781 32.8667 83.9521 32.6613 84.3334 32.522C84.7147 32.3753 85.0741 32.302 85.4114 32.302ZM92.9344 37.395V38H91.6254L91.3394 37.208C91.0387 37.516 90.7124 37.7433 90.3604 37.89C90.0157 38.0367 89.627 38.11 89.1944 38.11C88.4904 38.11 87.9697 37.9743 87.6324 37.703C87.295 37.4317 87.1264 36.9917 87.1264 36.383C87.1264 35.7377 87.328 35.272 87.7314 34.986C88.1347 34.6927 88.7837 34.546 89.6784 34.546C90.0304 34.546 90.3384 34.579 90.6024 34.645C90.8737 34.7037 91.0937 34.777 91.2624 34.865V34.436C91.2624 34.0987 91.2184 33.8383 91.1304 33.655C91.0497 33.4643 90.8994 33.3287 90.6794 33.248C90.4667 33.16 90.155 33.116 89.7444 33.116C89.0037 33.116 88.2337 33.204 87.4344 33.38V32.588C88.2484 32.412 89.0257 32.324 89.7664 32.324C90.4557 32.324 90.9727 32.3937 91.3174 32.533C91.6694 32.6723 91.9004 32.874 92.0104 33.138C92.1277 33.402 92.1864 33.7687 92.1864 34.238V37.065L92.9344 37.395ZM88.0944 36.317C88.0944 36.6763 88.1824 36.933 88.3584 37.087C88.5417 37.241 88.8717 37.318 89.3484 37.318C89.7004 37.318 90.0377 37.2557 90.3604 37.131C90.6904 36.999 90.991 36.8193 91.2624 36.592V35.492C90.8517 35.3747 90.3567 35.316 89.7774 35.316C89.1394 35.316 88.6994 35.3967 88.4574 35.558C88.2154 35.7193 88.0944 35.9723 88.0944 36.317ZM103.905 37.395V38H102.233V34.359C102.233 33.9263 102.138 33.6147 101.947 33.424C101.757 33.226 101.474 33.127 101.1 33.127C100.844 33.127 100.605 33.16 100.385 33.226C100.173 33.2847 99.8206 33.402 99.3292 33.578V37.065L100.077 37.395V38H98.4052V34.359C98.4052 33.9263 98.3099 33.6147 98.1192 33.424C97.9286 33.226 97.6462 33.127 97.2722 33.127C97.0229 33.127 96.7882 33.16 96.5682 33.226C96.3556 33.2847 95.9999 33.402 95.5012 33.578V37.065L96.2492 37.395V38H93.8292V37.395L94.5772 37.065V33.413L93.8292 33.105V32.478H95.0502L95.3362 32.929C95.7689 32.709 96.1576 32.555 96.5022 32.467C96.8469 32.3717 97.2026 32.324 97.5692 32.324C97.9359 32.324 98.2402 32.3753 98.4822 32.478C98.7316 32.5807 98.9369 32.742 99.0982 32.962C99.5382 32.7347 99.9342 32.5733 100.286 32.478C100.646 32.3753 101.016 32.324 101.397 32.324C101.837 32.324 102.186 32.3973 102.442 32.544C102.699 32.6833 102.882 32.9107 102.992 33.226C103.102 33.534 103.157 33.952 103.157 34.48V37.065L103.905 37.395ZM107.503 32.324C108.251 32.324 108.856 32.5587 109.318 33.028C109.787 33.49 110.022 34.1793 110.022 35.096V35.536H105.71C105.747 36.0273 105.835 36.405 105.974 36.669C106.121 36.9257 106.33 37.1053 106.601 37.208C106.88 37.3107 107.261 37.362 107.745 37.362C108.442 37.362 109.131 37.2777 109.813 37.109V37.901C109.527 37.9743 109.193 38.033 108.812 38.077C108.431 38.1283 108.068 38.154 107.723 38.154C106.748 38.154 106.007 37.934 105.501 37.494C104.995 37.054 104.742 36.3023 104.742 35.239C104.742 34.249 104.991 33.5157 105.49 33.039C105.989 32.5623 106.66 32.324 107.503 32.324ZM107.448 33.116C106.876 33.116 106.458 33.2443 106.194 33.501C105.93 33.7577 105.772 34.1757 105.721 34.755H109.043C108.999 34.2123 108.849 33.8053 108.592 33.534C108.335 33.2553 107.954 33.116 107.448 33.116ZM117.268 37.395V38H115.596V34.359C115.596 33.9263 115.49 33.6147 115.277 33.424C115.072 33.226 114.768 33.127 114.364 33.127C114.108 33.127 113.855 33.16 113.605 33.226C113.363 33.292 113.008 33.4093 112.538 33.578V37.065L113.396 37.395V38H110.866V37.395L111.614 37.065V33.413L110.866 33.105V32.478H112.087L112.373 32.929C112.784 32.7163 113.173 32.5623 113.539 32.467C113.906 32.3717 114.28 32.324 114.661 32.324C115.123 32.324 115.49 32.3973 115.761 32.544C116.033 32.6833 116.227 32.9107 116.344 33.226C116.462 33.534 116.52 33.952 116.52 34.48V37.065L117.268 37.395ZM120.767 38.088C120.063 38.088 119.557 37.945 119.249 37.659C118.949 37.373 118.798 36.889 118.798 36.207V33.248H117.94V32.632L118.798 32.478L119.128 30.883H119.722V32.478L121.603 32.489V33.259L119.722 33.248V36.207C119.722 36.5077 119.759 36.735 119.832 36.889C119.906 37.043 120.027 37.1493 120.195 37.208C120.364 37.2667 120.61 37.296 120.932 37.296C121.182 37.296 121.442 37.2703 121.713 37.219V37.989C121.449 38.055 121.134 38.088 120.767 38.088ZM125.293 32.324C126.136 32.324 126.811 32.5587 127.317 33.028C127.83 33.49 128.087 34.227 128.087 35.239C128.087 36.251 127.83 36.9917 127.317 37.461C126.811 37.923 126.136 38.154 125.293 38.154C124.45 38.154 123.771 37.923 123.258 37.461C122.752 36.9917 122.499 36.251 122.499 35.239C122.499 34.227 122.752 33.49 123.258 33.028C123.771 32.5587 124.45 32.324 125.293 32.324ZM125.293 33.116C124.853 33.116 124.501 33.1783 124.237 33.303C123.98 33.4277 123.786 33.644 123.654 33.952C123.529 34.26 123.467 34.689 123.467 35.239C123.467 35.789 123.529 36.218 123.654 36.526C123.786 36.834 123.98 37.0503 124.237 37.175C124.501 37.2997 124.853 37.362 125.293 37.362C125.733 37.362 126.081 37.2997 126.338 37.175C126.602 37.0503 126.796 36.834 126.921 36.526C127.053 36.218 127.119 35.789 127.119 35.239C127.119 34.689 127.053 34.26 126.921 33.952C126.796 33.644 126.602 33.4277 126.338 33.303C126.081 33.1783 125.733 33.116 125.293 33.116ZM132.111 34.876C132.617 34.9713 132.995 35.0777 133.244 35.195C133.493 35.3123 133.662 35.4663 133.75 35.657C133.838 35.8403 133.882 36.1007 133.882 36.438C133.882 36.856 133.805 37.1897 133.651 37.439C133.504 37.681 133.24 37.8607 132.859 37.978C132.485 38.0953 131.953 38.154 131.264 38.154C130.912 38.154 130.571 38.1357 130.241 38.099C129.911 38.0697 129.511 38.0147 129.042 37.934V36.35H129.702L130.021 37.285C130.41 37.351 130.835 37.384 131.297 37.384C131.752 37.384 132.093 37.362 132.32 37.318C132.547 37.2667 132.701 37.186 132.782 37.076C132.87 36.9587 132.914 36.79 132.914 36.57C132.914 36.372 132.874 36.2253 132.793 36.13C132.712 36.0273 132.591 35.954 132.43 35.91C132.276 35.866 132.005 35.8147 131.616 35.756L130.868 35.624C130.347 35.5287 129.955 35.4223 129.691 35.305C129.427 35.1877 129.24 35.03 129.13 34.832C129.027 34.6267 128.976 34.3407 128.976 33.974C128.976 33.5707 129.046 33.2517 129.185 33.017C129.332 32.7823 129.581 32.61 129.933 32.5C130.285 32.3827 130.78 32.324 131.418 32.324C132.056 32.324 132.811 32.3973 133.684 32.544V34.073H133.046L132.749 33.215C132.265 33.1343 131.807 33.094 131.374 33.094C130.993 33.094 130.699 33.1197 130.494 33.171C130.289 33.2223 130.146 33.303 130.065 33.413C129.984 33.523 129.944 33.6807 129.944 33.886C129.944 34.0913 129.988 34.2453 130.076 34.348C130.164 34.4433 130.307 34.5203 130.505 34.579C130.703 34.6303 131.048 34.6963 131.539 34.777C131.722 34.799 131.913 34.832 132.111 34.876ZM144.449 32.467H143.8L143.514 31.312H139.774V33.842H141.963L142.128 32.995H142.733V35.481H142.128L141.963 34.634H139.774V37.208H143.514L143.8 35.943H144.449V38H138.014V37.395L138.828 37.065V31.466L138.014 31.147V30.52H144.449V32.467ZM147.203 37.065L147.951 37.395V38H145.531V37.395L146.279 37.065V31.125L145.531 30.817V30.19H147.203V37.065ZM151.546 32.324C152.294 32.324 152.899 32.5587 153.361 33.028C153.83 33.49 154.065 34.1793 154.065 35.096V35.536H149.753C149.79 36.0273 149.878 36.405 150.017 36.669C150.164 36.9257 150.373 37.1053 150.644 37.208C150.923 37.3107 151.304 37.362 151.788 37.362C152.485 37.362 153.174 37.2777 153.856 37.109V37.901C153.57 37.9743 153.236 38.033 152.855 38.077C152.474 38.1283 152.111 38.154 151.766 38.154C150.791 38.154 150.05 37.934 149.544 37.494C149.038 37.054 148.785 36.3023 148.785 35.239C148.785 34.249 149.034 33.5157 149.533 33.039C150.032 32.5623 150.703 32.324 151.546 32.324ZM151.491 33.116C150.919 33.116 150.501 33.2443 150.237 33.501C149.973 33.7577 149.815 34.1757 149.764 34.755H153.086C153.042 34.2123 152.892 33.8053 152.635 33.534C152.378 33.2553 151.997 33.116 151.491 33.116ZM151.953 31.708H151.029L152.217 29.684H153.537L151.953 31.708ZM157.516 38.088C156.812 38.088 156.306 37.945 155.998 37.659C155.698 37.373 155.547 36.889 155.547 36.207V33.248H154.689V32.632L155.547 32.478L155.877 30.883H156.471V32.478L158.352 32.489V33.259L156.471 33.248V36.207C156.471 36.5077 156.508 36.735 156.581 36.889C156.655 37.043 156.776 37.1493 156.944 37.208C157.113 37.2667 157.359 37.296 157.681 37.296C157.931 37.296 158.191 37.2703 158.462 37.219V37.989C158.198 38.055 157.883 38.088 157.516 38.088ZM163.249 32.302C163.572 32.302 163.807 32.379 163.953 32.533C164.1 32.687 164.173 32.9253 164.173 33.248C164.173 33.842 163.836 34.139 163.161 34.139L162.721 33.149C162.435 33.2223 162.146 33.325 161.852 33.457C161.566 33.5817 161.31 33.7173 161.082 33.864V37.065L162.105 37.395V38H159.41V37.395L160.158 37.065V33.413L159.41 33.105V32.478H160.631L161.049 33.138C161.416 32.8667 161.79 32.6613 162.171 32.522C162.553 32.3753 162.912 32.302 163.249 32.302ZM166.075 30.069C166.303 30.069 166.482 30.135 166.614 30.267C166.754 30.399 166.823 30.586 166.823 30.828C166.823 31.07 166.754 31.257 166.614 31.389C166.482 31.521 166.303 31.587 166.075 31.587C165.848 31.587 165.665 31.521 165.525 31.389C165.393 31.257 165.327 31.07 165.327 30.828C165.327 30.586 165.393 30.399 165.525 30.267C165.665 30.135 165.848 30.069 166.075 30.069ZM166.625 37.065L167.373 37.395V38H164.953V37.395L165.701 37.065V33.413L164.953 33.105V32.478H166.625V37.065ZM171.144 32.324C171.753 32.324 172.182 32.401 172.431 32.555C172.68 32.709 172.805 32.9547 172.805 33.292C172.805 33.886 172.453 34.183 171.749 34.183L171.265 33.083C170.686 33.083 170.249 33.149 169.956 33.281C169.663 33.413 169.457 33.6293 169.34 33.93C169.23 34.2233 169.175 34.6523 169.175 35.217C169.175 35.7963 169.237 36.24 169.362 36.548C169.494 36.856 169.692 37.0687 169.956 37.186C170.227 37.3033 170.594 37.362 171.056 37.362C171.371 37.362 171.657 37.3437 171.914 37.307C172.171 37.263 172.438 37.1897 172.717 37.087V37.879C172.49 37.967 172.222 38.033 171.914 38.077C171.613 38.1283 171.313 38.154 171.012 38.154C170.103 38.154 169.406 37.9377 168.922 37.505C168.445 37.065 168.207 36.3133 168.207 35.25C168.207 34.216 168.449 33.4717 168.933 33.017C169.424 32.555 170.161 32.324 171.144 32.324ZM176.49 32.324C177.333 32.324 178.008 32.5587 178.514 33.028C179.027 33.49 179.284 34.227 179.284 35.239C179.284 36.251 179.027 36.9917 178.514 37.461C178.008 37.923 177.333 38.154 176.49 38.154C175.647 38.154 174.968 37.923 174.455 37.461C173.949 36.9917 173.696 36.251 173.696 35.239C173.696 34.227 173.949 33.49 174.455 33.028C174.968 32.5587 175.647 32.324 176.49 32.324ZM176.49 33.116C176.05 33.116 175.698 33.1783 175.434 33.303C175.177 33.4277 174.983 33.644 174.851 33.952C174.726 34.26 174.664 34.689 174.664 35.239C174.664 35.789 174.726 36.218 174.851 36.526C174.983 36.834 175.177 37.0503 175.434 37.175C175.698 37.2997 176.05 37.362 176.49 37.362C176.93 37.362 177.278 37.2997 177.535 37.175C177.799 37.0503 177.993 36.834 178.118 36.526C178.25 36.218 178.316 35.789 178.316 35.239C178.316 34.689 178.25 34.26 178.118 33.952C177.993 33.644 177.799 33.4277 177.535 33.303C177.278 33.1783 176.93 33.116 176.49 33.116ZM183.308 34.876C183.814 34.9713 184.192 35.0777 184.441 35.195C184.691 35.3123 184.859 35.4663 184.947 35.657C185.035 35.8403 185.079 36.1007 185.079 36.438C185.079 36.856 185.002 37.1897 184.848 37.439C184.702 37.681 184.438 37.8607 184.056 37.978C183.682 38.0953 183.151 38.154 182.461 38.154C182.109 38.154 181.768 38.1357 181.438 38.099C181.108 38.0697 180.709 38.0147 180.239 37.934V36.35H180.899L181.218 37.285C181.607 37.351 182.032 37.384 182.494 37.384C182.949 37.384 183.29 37.362 183.517 37.318C183.745 37.2667 183.899 37.186 183.979 37.076C184.067 36.9587 184.111 36.79 184.111 36.57C184.111 36.372 184.071 36.2253 183.99 36.13C183.91 36.0273 183.789 35.954 183.627 35.91C183.473 35.866 183.202 35.8147 182.813 35.756L182.065 35.624C181.545 35.5287 181.152 35.4223 180.888 35.305C180.624 35.1877 180.437 35.03 180.327 34.832C180.225 34.6267 180.173 34.3407 180.173 33.974C180.173 33.5707 180.243 33.2517 180.382 33.017C180.529 32.7823 180.778 32.61 181.13 32.5C181.482 32.3827 181.977 32.324 182.615 32.324C183.253 32.324 184.009 32.3973 184.881 32.544V34.073H184.243L183.946 33.215C183.462 33.1343 183.004 33.094 182.571 33.094C182.19 33.094 181.897 33.1197 181.691 33.171C181.486 33.2223 181.343 33.303 181.262 33.413C181.182 33.523 181.141 33.6807 181.141 33.886C181.141 34.0913 181.185 34.2453 181.273 34.348C181.361 34.4433 181.504 34.5203 181.702 34.579C181.9 34.6303 182.245 34.6963 182.736 34.777C182.92 34.799 183.11 34.832 183.308 34.876Z" fill="black"/>
<path d="M66.78 13.54L65.3 14.12V24.3L66.78 24.9V26H62.1V24.9L63.58 24.3V14.12L62.1 13.54V12.4H66.78V13.54ZM74.035 15.68C75.1417 15.68 75.9217 15.82 76.375 16.1C76.8283 16.38 77.055 16.8267 77.055 17.44C77.055 18.52 76.415 19.06 75.135 19.06L74.255 17.06C73.2017 17.06 72.4083 17.18 71.875 17.42C71.3417 17.66 70.9683 18.0533 70.755 18.6C70.555 19.1333 70.455 19.9133 70.455 20.94C70.455 21.9933 70.5683 22.8 70.795 23.36C71.035 23.92 71.395 24.3067 71.875 24.52C72.3683 24.7333 73.035 24.84 73.875 24.84C74.4483 24.84 74.9683 24.8067 75.435 24.74C75.9017 24.66 76.3883 24.5267 76.895 24.34V25.78C76.4817 25.94 75.995 26.06 75.435 26.14C74.8883 26.2333 74.3417 26.28 73.795 26.28C72.1417 26.28 70.875 25.8867 69.995 25.1C69.1283 24.3 68.695 22.9333 68.695 21C68.695 19.12 69.135 17.7667 70.015 16.94C70.9083 16.1 72.2483 15.68 74.035 15.68ZM83.7555 15.68C85.2888 15.68 86.5155 16.1067 87.4355 16.96C88.3688 17.8 88.8355 19.14 88.8355 20.98C88.8355 22.82 88.3688 24.1667 87.4355 25.02C86.5155 25.86 85.2888 26.28 83.7555 26.28C82.2221 26.28 80.9888 25.86 80.0555 25.02C79.1355 24.1667 78.6755 22.82 78.6755 20.98C78.6755 19.14 79.1355 17.8 80.0555 16.96C80.9888 16.1067 82.2221 15.68 83.7555 15.68ZM83.7555 17.12C82.9555 17.12 82.3155 17.2333 81.8355 17.46C81.3688 17.6867 81.0155 18.08 80.7755 18.64C80.5488 19.2 80.4355 19.98 80.4355 20.98C80.4355 21.98 80.5488 22.76 80.7755 23.32C81.0155 23.88 81.3688 24.2733 81.8355 24.5C82.3155 24.7267 82.9555 24.84 83.7555 24.84C84.5555 24.84 85.1888 24.7267 85.6555 24.5C86.1355 24.2733 86.4888 23.88 86.7155 23.32C86.9555 22.76 87.0755 21.98 87.0755 20.98C87.0755 19.98 86.9555 19.2 86.7155 18.64C86.4888 18.08 86.1355 17.6867 85.6555 17.46C85.1888 17.2333 84.5555 17.12 83.7555 17.12ZM108.892 24.9V26H105.852V19.38C105.852 18.5933 105.679 18.0267 105.332 17.68C104.986 17.32 104.472 17.14 103.792 17.14C103.326 17.14 102.892 17.2 102.492 17.32C102.106 17.4267 101.466 17.64 100.572 17.96V24.3L101.932 24.9V26H98.8923V19.38C98.8923 18.5933 98.719 18.0267 98.3723 17.68C98.0257 17.32 97.5123 17.14 96.8323 17.14C96.379 17.14 95.9523 17.2 95.5523 17.32C95.1657 17.4267 94.519 17.64 93.6123 17.96V24.3L94.9723 24.9V26H90.5723V24.9L91.9323 24.3V17.66L90.5723 17.1V15.96H92.7923L93.3123 16.78C94.099 16.38 94.8057 16.1 95.4323 15.94C96.059 15.7667 96.7057 15.68 97.3723 15.68C98.039 15.68 98.5923 15.7733 99.0323 15.96C99.4857 16.1467 99.859 16.44 100.152 16.84C100.952 16.4267 101.672 16.1333 102.312 15.96C102.966 15.7733 103.639 15.68 104.332 15.68C105.132 15.68 105.766 15.8133 106.232 16.08C106.699 16.3333 107.032 16.7467 107.232 17.32C107.432 17.88 107.532 18.64 107.532 19.6V24.3L108.892 24.9ZM115.434 15.68C116.794 15.68 117.894 16.1067 118.734 16.96C119.587 17.8 120.014 19.0533 120.014 20.72V21.52H112.174C112.24 22.4133 112.4 23.1 112.654 23.58C112.92 24.0467 113.3 24.3733 113.794 24.56C114.3 24.7467 114.994 24.84 115.874 24.84C117.14 24.84 118.394 24.6867 119.634 24.38V25.82C119.114 25.9533 118.507 26.06 117.814 26.14C117.12 26.2333 116.46 26.28 115.834 26.28C114.06 26.28 112.714 25.88 111.794 25.08C110.874 24.28 110.414 22.9133 110.414 20.98C110.414 19.18 110.867 17.8467 111.774 16.98C112.68 16.1133 113.9 15.68 115.434 15.68ZM115.334 17.12C114.294 17.12 113.534 17.3533 113.054 17.82C112.574 18.2867 112.287 19.0467 112.194 20.1H118.234C118.154 19.1133 117.88 18.3733 117.414 17.88C116.947 17.3733 116.254 17.12 115.334 17.12ZM124.55 24.3L125.91 24.9V26H121.51V24.9L122.87 24.3V13.5L121.51 12.94V11.8H124.55V24.3Z" fill="black"/>
</svg>
