<svg width="63" height="49" viewBox="0 0 63 49" fill="none" xmlns="http://www.w3.org/2000/svg">
<mask id="path-1-inside-1" fill="white">
<path d="M18.1701 6.99984L18.1701 32.9998L24.0987 32.9998L29.5987 32.9998L31.0987 36.4998L33.0987 40.9999L20.5987 40.9998L10.6701 40.9998L10.6701 24.9712L10.6701 6.99985L14.5987 6.99984L18.1701 6.99984Z"/>
</mask>
<path d="M18.1701 32.9998L8.17012 32.9998L8.17012 42.9998L18.1701 42.9998L18.1701 32.9998ZM18.1701 6.99984L28.1701 6.99984L28.1701 -3.00016L18.1701 -3.00016L18.1701 6.99984ZM10.6701 6.99985L10.6701 -3.00015L0.670117 -3.00014L0.670117 6.99985L10.6701 6.99985ZM14.5987 6.99984L14.5987 -3.00016L14.5987 -3.00016L14.5987 6.99984ZM10.6701 24.9712L0.670116 24.9712L0.670116 24.9712L10.6701 24.9712ZM10.6701 40.9998L0.670121 40.9998L0.670124 50.9998L10.6701 50.9998L10.6701 40.9998ZM20.5987 40.9998L20.5987 50.9998L20.5987 50.9998L20.5987 40.9998ZM33.0987 40.9999L33.0987 50.9999L48.4863 50.9999L42.2368 36.9385L33.0987 40.9999ZM24.0987 32.9998L24.0987 42.9998L24.0987 42.9998L24.0987 32.9998ZM29.5987 32.9998L38.7902 29.0606L36.1927 22.9998L29.5987 22.9998L29.5987 32.9998ZM31.0987 36.4998L21.9073 40.439L21.9335 40.5003L21.9606 40.5612L31.0987 36.4998ZM28.1701 32.9998L28.1701 6.99984L8.17012 6.99984L8.17012 32.9998L28.1701 32.9998ZM10.6701 16.9998L14.5987 16.9998L14.5987 -3.00016L10.6701 -3.00015L10.6701 16.9998ZM14.5987 16.9998L18.1701 16.9998L18.1701 -3.00016L14.5987 -3.00016L14.5987 16.9998ZM0.670117 6.99985L0.670116 24.9712L20.6701 24.9712L20.6701 6.99985L0.670117 6.99985ZM0.670116 24.9712L0.670121 40.9998L20.6701 40.9998L20.6701 24.9712L0.670116 24.9712ZM10.6701 50.9998L20.5987 50.9998L20.5987 30.9998L10.6701 30.9998L10.6701 50.9998ZM20.5987 50.9998L33.0987 50.9999L33.0987 30.9999L20.5987 30.9998L20.5987 50.9998ZM18.1701 42.9998L24.0987 42.9998L24.0987 22.9998L18.1701 22.9998L18.1701 42.9998ZM24.0987 42.9998L29.5987 42.9998L29.5987 22.9998L24.0987 22.9998L24.0987 42.9998ZM20.4073 36.939L21.9073 40.439L40.2902 32.5606L38.7902 29.0606L20.4073 36.939ZM21.9606 40.5612L23.9606 45.0612L42.2368 36.9385L40.2368 32.4385L21.9606 40.5612Z" fill="#403C3C" mask="url(#path-1-inside-1)"/>
<mask id="path-3-inside-2" fill="white">
<path d="M44.5212 41.0378L44.5259 15.0378L38.5973 15.0368L33.0973 15.0358L31.5979 11.5355L29.5987 7.03516L42.0987 7.0374L52.0273 7.03919L52.0244 23.0678L52.0212 41.0392L48.0926 41.0385L44.5212 41.0378Z"/>
</mask>
<path d="M44.5259 15.0378L54.5259 15.0396L54.5276 5.03962L44.5276 5.03784L44.5259 15.0378ZM44.5212 41.0378L34.5212 41.036L34.5195 51.036L44.5195 51.0378L44.5212 41.0378ZM52.0212 41.0392L52.0195 51.0392L62.0195 51.0409L62.0212 41.0409L52.0212 41.0392ZM48.0926 41.0385L48.0909 51.0385L48.0909 51.0385L48.0926 41.0385ZM52.0244 23.0678L62.0244 23.0696L62.0244 23.0696L52.0244 23.0678ZM52.0273 7.03919L62.0273 7.04097L62.0291 -2.959L52.0291 -2.96081L52.0273 7.03919ZM42.0987 7.0374L42.1005 -2.9626L42.1005 -2.9626L42.0987 7.0374ZM29.5987 7.03516L29.6005 -2.96484L14.2129 -2.96759L20.4599 11.0949L29.5987 7.03516ZM38.5973 15.0368L38.5991 5.03679L38.5991 5.03679L38.5973 15.0368ZM33.0973 15.0358L23.9051 18.9734L26.5015 25.0346L33.0955 25.0358L33.0973 15.0358ZM31.5979 11.5355L40.79 7.59799L40.7638 7.53672L40.7367 7.47581L31.5979 11.5355ZM34.5259 15.0361L34.5212 41.036L54.5212 41.0396L54.5259 15.0396L34.5259 15.0361ZM52.023 31.0392L48.0944 31.0385L48.0909 51.0385L52.0195 51.0392L52.023 31.0392ZM48.0944 31.0385L44.523 31.0378L44.5195 51.0378L48.0909 51.0385L48.0944 31.0385ZM62.0212 41.0409L62.0244 23.0696L42.0244 23.066L42.0212 41.0374L62.0212 41.0409ZM62.0244 23.0696L62.0273 7.04097L42.0273 7.03741L42.0244 23.066L62.0244 23.0696ZM52.0291 -2.96081L42.1005 -2.9626L42.0969 17.0374L52.0255 17.0392L52.0291 -2.96081ZM42.1005 -2.9626L29.6005 -2.96484L29.5969 17.0352L42.0969 17.0374L42.1005 -2.9626ZM44.5276 5.03784L38.5991 5.03679L38.5955 25.0368L44.5241 25.0378L44.5276 5.03784ZM38.5991 5.03679L33.0991 5.03581L33.0955 25.0358L38.5955 25.0368L38.5991 5.03679ZM42.2894 11.0983L40.79 7.59799L22.4057 15.4731L23.9051 18.9734L42.2894 11.0983ZM40.7367 7.47581L38.7375 2.97543L20.4599 11.0949L22.459 15.5953L40.7367 7.47581Z" fill="#403C3C" mask="url(#path-3-inside-2)"/>
<mask id="path-5-inside-3" fill="white">
<path d="M38.6903 40.9999L32.6903 27.2457L23.6903 27.2457L23.6903 6.99985L29.6903 20.2457L38.6903 20.2457L38.6903 40.9999Z"/>
</mask>
<path d="M32.6903 27.2457L60.1878 15.2504L52.3335 -2.75443L32.6901 -2.75432L32.6903 27.2457ZM38.6903 40.9999L11.1928 52.9951L68.6903 40.9999L38.6903 40.9999ZM38.6903 20.2457L68.6903 20.2457L68.6903 -9.75431L38.6903 -9.75432L38.6903 20.2457ZM29.6903 20.2457L2.36311 32.6241L10.3452 50.2457L29.6903 50.2457L29.6903 20.2457ZM23.6903 6.99985L51.0174 -5.37861L-6.30973 6.99985L23.6903 6.99985ZM23.6903 27.2457L-6.30973 27.2457L-6.30973 57.2459L23.6904 57.2457L23.6903 27.2457ZM5.19275 39.241L11.1928 52.9951L66.1878 29.0046L60.1878 15.2504L5.19275 39.241ZM68.6903 40.9999L68.6903 20.2457L8.69026 20.2457L8.69027 40.9999L68.6903 40.9999ZM38.6903 -9.75432L29.6903 -9.75433L29.6903 50.2457L38.6903 50.2457L38.6903 -9.75432ZM57.0174 7.86721L51.0174 -5.37861L-3.63689 19.3783L2.36311 32.6241L57.0174 7.86721ZM-6.30973 6.99985L-6.30973 27.2457L53.6903 27.2457L53.6903 6.99985L-6.30973 6.99985ZM23.6904 57.2457L32.6904 57.2457L32.6901 -2.75432L23.6901 -2.75427L23.6904 57.2457Z" fill="#DE583B" mask="url(#path-5-inside-3)"/>
</svg>
