<svg width="46" height="51" viewBox="0 0 46 51" fill="none" xmlns="http://www.w3.org/2000/svg">
<mask id="path-1-inside-1" fill="white">
<path d="M24.218 37.2459L22.218 32.2459L12.218 32.2459L11.218 14.2459L7.71801 14.2459L7.21802 14.2459L7.21802 26.7459L7.21803 37.2459L15.718 37.2459L24.218 37.2459Z"/>
</mask>
<path d="M22.218 32.2459L31.5028 28.532L28.9884 22.2459L22.218 22.2459L22.218 32.2459ZM24.218 37.2459L24.218 47.2459L38.9883 47.2459L33.5028 33.532L24.218 37.2459ZM12.218 32.2459L2.23341 32.8006L2.75815 42.2458L12.218 42.2459L12.218 32.2459ZM11.218 14.2459L21.2026 13.6912L20.6779 4.24588L11.218 4.24588L11.218 14.2459ZM7.21802 14.2459L7.21804 4.24588L-2.78198 4.24586L-2.78198 14.2459L7.21802 14.2459ZM7.71801 14.2459L7.71799 24.2459L7.71802 24.2459L7.71801 14.2459ZM7.21802 26.7459L17.218 26.7458L17.218 26.7458L7.21802 26.7459ZM7.21803 37.2459L-2.78197 37.2459L-2.78197 47.2459L7.21803 47.2459L7.21803 37.2459ZM15.718 37.2459L15.718 27.2459L15.718 27.2459L15.718 37.2459ZM12.9333 35.9598L14.9332 40.9598L33.5028 33.532L31.5028 28.532L12.9333 35.9598ZM12.218 42.2459L22.218 42.2459L22.218 22.2459L12.218 22.2459L12.218 42.2459ZM22.2026 31.6912L21.2026 13.6912L1.23342 14.8006L2.23341 32.8006L22.2026 31.6912ZM7.218 24.2459L7.71799 24.2459L7.71803 4.24588L7.21804 4.24588L7.218 24.2459ZM7.71802 24.2459L11.218 24.2459L11.218 4.24588L7.71801 4.24588L7.71802 24.2459ZM-2.78198 14.2459L-2.78198 26.7459L17.218 26.7458L17.218 14.2459L-2.78198 14.2459ZM-2.78198 26.7459L-2.78197 37.2459L17.218 37.2459L17.218 26.7458L-2.78198 26.7459ZM7.21803 47.2459L15.718 47.2459L15.718 27.2459L7.21803 27.2459L7.21803 47.2459ZM15.718 47.2459L24.218 47.2459L24.218 27.2459L15.718 27.2459L15.718 47.2459Z" fill="#3A3434" mask="url(#path-1-inside-1)"/>
<mask id="path-3-inside-2" fill="white">
<path d="M20.718 14.2459L22.718 19.2459L32.718 19.2459L33.718 29.2459L34.718 37.2459L38.218 37.2459L38.218 27.2459L38.218 14.2459L30.718 14.2459L20.718 14.2459Z"/>
</mask>
<path d="M22.718 19.2459L13.4332 22.9598L15.9477 29.2459L22.718 29.2459L22.718 19.2459ZM20.718 14.2459L20.718 4.24587L5.94766 4.24585L11.4332 17.9598L20.718 14.2459ZM38.218 37.2459L38.218 47.2459L48.218 47.2458L48.218 37.2459L38.218 37.2459ZM34.718 37.2459L24.7952 38.4862L25.8902 47.2459L34.718 47.2459L34.718 37.2459ZM32.718 19.2459L42.6684 18.2508L41.7679 9.2459L32.718 9.24589L32.718 19.2459ZM33.718 29.2459L23.7676 30.2409L23.7799 30.3637L23.7952 30.4862L33.718 29.2459ZM38.218 27.2459L28.218 27.2459L28.218 27.2459L38.218 27.2459ZM38.218 14.2459L48.218 14.2459L48.218 4.24589L38.218 4.24589L38.218 14.2459ZM30.718 14.2459L30.718 24.2459L30.718 24.2459L30.718 14.2459ZM32.0028 15.532L30.0028 10.532L11.4332 17.9598L13.4332 22.9598L32.0028 15.532ZM38.218 27.2459L34.718 27.2459L34.718 47.2459L38.218 47.2459L38.218 27.2459ZM32.718 9.24589L22.718 9.24587L22.718 29.2459L32.718 29.2459L32.718 9.24589ZM22.7676 20.2409L23.7676 30.2409L43.6684 28.2508L42.6684 18.2508L22.7676 20.2409ZM23.7952 30.4862L24.7952 38.4862L44.6408 36.0055L43.6408 28.0055L23.7952 30.4862ZM48.218 37.2459L48.218 27.2459L28.218 27.2459L28.218 37.2459L48.218 37.2459ZM48.218 27.2459L48.218 14.2459L28.218 14.2459L28.218 27.2459L48.218 27.2459ZM38.218 4.24589L30.718 4.24589L30.718 24.2459L38.218 24.2459L38.218 4.24589ZM30.718 4.24589L20.718 4.24587L20.718 24.2459L30.718 24.2459L30.718 4.24589Z" fill="#3A3434" mask="url(#path-3-inside-2)"/>
<mask id="path-5-inside-3" fill="white">
<path d="M32.218 47.2458L24.218 29.2458L15.218 29.2459L13.218 3.24586L21.218 22.2458L30.218 22.2458L32.218 47.2458Z"/>
</mask>
<path d="M24.218 29.2458L51.6324 17.0617L43.7142 -0.754281L24.2178 -0.754171L24.218 29.2458ZM32.218 47.2458L4.80367 59.43L62.1225 44.8535L32.218 47.2458ZM30.218 22.2458L60.1225 19.8535L57.9139 -7.75417L30.218 -7.75417L30.218 22.2458ZM21.218 22.2458L-6.43103 33.8876L1.29878 52.2458L21.218 52.2458L21.218 22.2458ZM13.218 3.24586L40.8671 -8.39588L-16.6936 5.54676L13.218 3.24586ZM15.218 29.2459L-14.6936 31.5468L-12.5629 59.246L15.2182 59.2459L15.218 29.2459ZM-3.19633 41.43L4.80367 59.43L59.6324 35.0617L51.6324 17.0617L-3.19633 41.43ZM62.1225 44.8535L60.1225 19.8535L0.313555 24.6382L2.31356 49.6382L62.1225 44.8535ZM30.218 -7.75417L21.218 -7.75417L21.218 52.2458L30.218 52.2458L30.218 -7.75417ZM48.8671 10.6041L40.8671 -8.39588L-14.431 14.8876L-6.43103 33.8876L48.8671 10.6041ZM-16.6936 5.54676L-14.6936 31.5468L45.1297 26.945L43.1296 0.944956L-16.6936 5.54676ZM15.2182 59.2459L24.2182 59.2458L24.2178 -0.754171L15.2178 -0.75412L15.2182 59.2459Z" fill="#DE583B" mask="url(#path-5-inside-3)"/>
</svg>
