<svg width="17" height="20" viewBox="0 0 17 20" fill="none" xmlns="http://www.w3.org/2000/svg">
<rect x="0.39386" y="2.85082" width="16.2123" height="2.82833" fill="#C1482E" stroke="black" stroke-width="0.015"/>
<rect x="7.34091" width="2.70455" height="19.0909" fill="#C4C4C4"/>
<rect y="12.9981" width="1.21857" height="17" transform="rotate(-90 0 12.9981)" fill="#C4C4C4"/>
<rect y="16.6538" width="1.21857" height="17" transform="rotate(-90 0 16.6538)" fill="#C4C4C4"/>
<rect x="11.5909" width="2.70455" height="19.0909" fill="#C4C4C4"/>
<rect y="9.34235" width="1.21857" height="17" transform="rotate(-90 0 9.34235)" fill="#C4C4C4"/>
<rect x="3.09091" width="2.70455" height="19.0909" fill="#C4C4C4"/>
<ellipse cx="4.44319" cy="8.73306" rx="0.579545" ry="0.609284" fill="#3A3434" fill-opacity="0.29"/>
<ellipse cx="8.69318" cy="12.795" rx="0.579545" ry="0.609284" fill="#3A3434" fill-opacity="0.29"/>
<ellipse cx="12.9432" cy="16.0445" rx="0.579545" ry="0.609284" fill="#3A3434" fill-opacity="0.29"/>
<ellipse cx="1.73863" cy="4.265" rx="0.579545" ry="0.609284" fill="#3A3434" fill-opacity="0.29"/>
<ellipse cx="15.2614" cy="4.265" rx="0.579545" ry="0.609284" fill="#3A3434" fill-opacity="0.29"/>
<ellipse cx="4.44319" cy="4.265" rx="0.579545" ry="0.609284" fill="#3A3434" fill-opacity="0.29"/>
<ellipse cx="8.69318" cy="4.265" rx="0.579545" ry="0.609284" fill="#3A3434" fill-opacity="0.29"/>
<ellipse cx="12.9432" cy="4.265" rx="0.579545" ry="0.609284" fill="#3A3434" fill-opacity="0.29"/>
</svg>
