<svg width="60" height="21" viewBox="0 0 60 21" fill="none" xmlns="http://www.w3.org/2000/svg">
<path d="M23.468 6.47854L22.58 6.82654V12.9345L23.468 13.2945V13.9545H20.66V13.2945L21.548 12.9345V6.82654L20.66 6.47854V5.79454H23.468V6.47854ZM27.821 7.76254C28.485 7.76254 28.953 7.84654 29.225 8.01454C29.497 8.18254 29.633 8.45054 29.633 8.81854C29.633 9.46654 29.249 9.79054 28.481 9.79054L27.953 8.59054C27.321 8.59054 26.845 8.66254 26.525 8.80654C26.205 8.95054 25.981 9.18654 25.853 9.51454C25.733 9.83454 25.673 10.3025 25.673 10.9185C25.673 11.5505 25.741 12.0345 25.877 12.3705C26.021 12.7065 26.237 12.9385 26.525 13.0665C26.821 13.1945 27.221 13.2585 27.725 13.2585C28.069 13.2585 28.381 13.2385 28.661 13.1985C28.941 13.1505 29.233 13.0705 29.537 12.9585V13.8225C29.289 13.9185 28.997 13.9905 28.661 14.0385C28.333 14.0945 28.005 14.1225 27.677 14.1225C26.685 14.1225 25.925 13.8865 25.397 13.4145C24.877 12.9345 24.617 12.1145 24.617 10.9545C24.617 9.82654 24.881 9.01454 25.409 8.51854C25.945 8.01454 26.749 7.76254 27.821 7.76254ZM33.6533 7.76254C34.5733 7.76254 35.3093 8.01854 35.8613 8.53054C36.4213 9.03454 36.7013 9.83854 36.7013 10.9425C36.7013 12.0465 36.4213 12.8545 35.8613 13.3665C35.3093 13.8705 34.5733 14.1225 33.6533 14.1225C32.7333 14.1225 31.9933 13.8705 31.4333 13.3665C30.8813 12.8545 30.6053 12.0465 30.6053 10.9425C30.6053 9.83854 30.8813 9.03454 31.4333 8.53054C31.9933 8.01854 32.7333 7.76254 33.6533 7.76254ZM33.6533 8.62654C33.1733 8.62654 32.7893 8.69454 32.5013 8.83054C32.2213 8.96654 32.0093 9.20254 31.8653 9.53854C31.7293 9.87454 31.6613 10.3425 31.6613 10.9425C31.6613 11.5425 31.7293 12.0105 31.8653 12.3465C32.0093 12.6825 32.2213 12.9185 32.5013 13.0545C32.7893 13.1905 33.1733 13.2585 33.6533 13.2585C34.1333 13.2585 34.5133 13.1905 34.7933 13.0545C35.0813 12.9185 35.2933 12.6825 35.4293 12.3465C35.5733 12.0105 35.6453 11.5425 35.6453 10.9425C35.6453 10.3425 35.5733 9.87454 35.4293 9.53854C35.2933 9.20254 35.0813 8.96654 34.7933 8.83054C34.5133 8.69454 34.1333 8.62654 33.6533 8.62654ZM48.7354 13.2945V13.9545H46.9114V9.98254C46.9114 9.51054 46.8074 9.17054 46.5994 8.96254C46.3914 8.74654 46.0834 8.63854 45.6754 8.63854C45.3954 8.63854 45.1354 8.67454 44.8954 8.74654C44.6634 8.81054 44.2794 8.93854 43.7434 9.13054V12.9345L44.5594 13.2945V13.9545H42.7354V9.98254C42.7354 9.51054 42.6314 9.17054 42.4234 8.96254C42.2154 8.74654 41.9074 8.63854 41.4994 8.63854C41.2274 8.63854 40.9714 8.67454 40.7314 8.74654C40.4994 8.81054 40.1114 8.93854 39.5674 9.13054V12.9345L40.3834 13.2945V13.9545H37.7434V13.2945L38.5594 12.9345V8.95054L37.7434 8.61454V7.93054H39.0754L39.3874 8.42254C39.8594 8.18254 40.2834 8.01454 40.6594 7.91854C41.0354 7.81454 41.4234 7.76254 41.8234 7.76254C42.2234 7.76254 42.5554 7.81854 42.8194 7.93054C43.0914 8.04254 43.3154 8.21854 43.4914 8.45854C43.9714 8.21054 44.4034 8.03454 44.7874 7.93054C45.1794 7.81854 45.5834 7.76254 45.9994 7.76254C46.4794 7.76254 46.8594 7.84254 47.1394 8.00254C47.4194 8.15454 47.6194 8.40254 47.7394 8.74654C47.8594 9.08254 47.9194 9.53854 47.9194 10.1145V12.9345L48.7354 13.2945ZM52.6603 7.76254C53.4763 7.76254 54.1363 8.01854 54.6403 8.53054C55.1523 9.03454 55.4083 9.78654 55.4083 10.7865V11.2665H50.7043C50.7443 11.8025 50.8403 12.2145 50.9923 12.5025C51.1523 12.7825 51.3803 12.9785 51.6763 13.0905C51.9803 13.2025 52.3963 13.2585 52.9243 13.2585C53.6843 13.2585 54.4363 13.1665 55.1803 12.9825V13.8465C54.8683 13.9265 54.5043 13.9905 54.0883 14.0385C53.6723 14.0945 53.2763 14.1225 52.9003 14.1225C51.8363 14.1225 51.0283 13.8825 50.4763 13.4025C49.9243 12.9225 49.6483 12.1025 49.6483 10.9425C49.6483 9.86254 49.9203 9.06254 50.4643 8.54254C51.0083 8.02254 51.7403 7.76254 52.6603 7.76254ZM52.6003 8.62654C51.9763 8.62654 51.5203 8.76654 51.2323 9.04654C50.9443 9.32654 50.7723 9.78254 50.7163 10.4145H54.3403C54.2923 9.82254 54.1283 9.37854 53.8483 9.08254C53.5683 8.77854 53.1523 8.62654 52.6003 8.62654ZM58.1299 12.9345L58.9459 13.2945V13.9545H56.3059V13.2945L57.1219 12.9345V6.45454L56.3059 6.11854V5.43454H58.1299V12.9345Z" fill="black"/>
<path d="M23.165 17.1532L23.387 17.0602V15.5362L23.165 15.4492V15.2782H24.386C24.568 15.2782 24.702 15.3222 24.788 15.4102C24.876 15.4962 24.92 15.6182 24.92 15.7762C24.92 15.9142 24.891 16.0262 24.833 16.1122C24.777 16.1962 24.696 16.2522 24.59 16.2802C24.702 16.2982 24.79 16.3492 24.854 16.4332C24.918 16.5152 24.95 16.6342 24.95 16.7902C24.95 16.9642 24.906 17.0962 24.818 17.1862C24.73 17.2742 24.6 17.3182 24.428 17.3182H23.165V17.1532ZM24.329 16.1842C24.445 16.1842 24.527 16.1582 24.575 16.1062C24.625 16.0522 24.65 15.9632 24.65 15.8392C24.65 15.7172 24.627 15.6292 24.581 15.5752C24.535 15.5212 24.459 15.4942 24.353 15.4942H23.645V16.1842H24.329ZM24.377 17.1022C24.483 17.1022 24.56 17.0752 24.608 17.0212C24.656 16.9652 24.68 16.8752 24.68 16.7512C24.68 16.6252 24.655 16.5352 24.605 16.4812C24.555 16.4272 24.471 16.4002 24.353 16.4002H23.645V17.1022H24.377ZM26.8549 17.1532V17.3182H26.4979L26.4199 17.1022C26.3379 17.1862 26.2489 17.2482 26.1529 17.2882C26.0589 17.3282 25.9529 17.3482 25.8349 17.3482C25.6429 17.3482 25.5009 17.3112 25.4089 17.2372C25.3169 17.1632 25.2709 17.0432 25.2709 16.8772C25.2709 16.7012 25.3259 16.5742 25.4359 16.4962C25.5459 16.4162 25.7229 16.3762 25.9669 16.3762C26.0629 16.3762 26.1469 16.3852 26.2189 16.4032C26.2929 16.4192 26.3529 16.4392 26.3989 16.4632V16.3462C26.3989 16.2542 26.3869 16.1832 26.3629 16.1332C26.3409 16.0812 26.2999 16.0442 26.2399 16.0222C26.1819 15.9982 26.0969 15.9862 25.9849 15.9862C25.7829 15.9862 25.5729 16.0102 25.3549 16.0582V15.8422C25.5769 15.7942 25.7889 15.7702 25.9909 15.7702C26.1789 15.7702 26.3199 15.7892 26.4139 15.8272C26.5099 15.8652 26.5729 15.9202 26.6029 15.9922C26.6349 16.0642 26.6509 16.1642 26.6509 16.2922V17.0632L26.8549 17.1532ZM25.5349 16.8592C25.5349 16.9572 25.5589 17.0272 25.6069 17.0692C25.6569 17.1112 25.7469 17.1322 25.8769 17.1322C25.9729 17.1322 26.0649 17.1152 26.1529 17.0812C26.2429 17.0452 26.3249 16.9962 26.3989 16.9342V16.6342C26.2869 16.6022 26.1519 16.5862 25.9939 16.5862C25.8199 16.5862 25.6999 16.6082 25.6339 16.6522C25.5679 16.6962 25.5349 16.7652 25.5349 16.8592ZM28.1459 15.7642C28.2339 15.7642 28.2979 15.7852 28.3379 15.8272C28.3779 15.8692 28.3979 15.9342 28.3979 16.0222C28.3979 16.1842 28.3059 16.2652 28.1219 16.2652L28.0019 15.9952C27.9239 16.0152 27.8449 16.0432 27.7649 16.0792C27.6869 16.1132 27.6169 16.1502 27.5549 16.1902V17.0632L27.8339 17.1532V17.3182H27.0989V17.1532L27.3029 17.0632V16.0672L27.0989 15.9832V15.8122H27.4319L27.5459 15.9922C27.6459 15.9182 27.7479 15.8622 27.8519 15.8242C27.9559 15.7842 28.0539 15.7642 28.1459 15.7642ZM29.6577 15.7642C29.7457 15.7642 29.8097 15.7852 29.8497 15.8272C29.8897 15.8692 29.9097 15.9342 29.9097 16.0222C29.9097 16.1842 29.8177 16.2652 29.6337 16.2652L29.5137 15.9952C29.4357 16.0152 29.3567 16.0432 29.2767 16.0792C29.1987 16.1132 29.1287 16.1502 29.0667 16.1902V17.0632L29.3457 17.1532V17.3182H28.6107V17.1532L28.8147 17.0632V16.0672L28.6107 15.9832V15.8122H28.9437L29.0577 15.9922C29.1577 15.9182 29.2597 15.8622 29.3637 15.8242C29.4677 15.7842 29.5657 15.7642 29.6577 15.7642ZM31.7094 17.1532V17.3182H31.3524L31.2744 17.1022C31.1924 17.1862 31.1034 17.2482 31.0074 17.2882C30.9134 17.3282 30.8074 17.3482 30.6894 17.3482C30.4974 17.3482 30.3554 17.3112 30.2634 17.2372C30.1714 17.1632 30.1254 17.0432 30.1254 16.8772C30.1254 16.7012 30.1804 16.5742 30.2904 16.4962C30.4004 16.4162 30.5774 16.3762 30.8214 16.3762C30.9174 16.3762 31.0014 16.3852 31.0734 16.4032C31.1474 16.4192 31.2074 16.4392 31.2534 16.4632V16.3462C31.2534 16.2542 31.2414 16.1832 31.2174 16.1332C31.1954 16.0812 31.1544 16.0442 31.0944 16.0222C31.0364 15.9982 30.9514 15.9862 30.8394 15.9862C30.6374 15.9862 30.4274 16.0102 30.2094 16.0582V15.8422C30.4314 15.7942 30.6434 15.7702 30.8454 15.7702C31.0334 15.7702 31.1744 15.7892 31.2684 15.8272C31.3644 15.8652 31.4274 15.9202 31.4574 15.9922C31.4894 16.0642 31.5054 16.1642 31.5054 16.2922V17.0632L31.7094 17.1532ZM30.3894 16.8592C30.3894 16.9572 30.4134 17.0272 30.4614 17.0692C30.5114 17.1112 30.6014 17.1322 30.7314 17.1322C30.8274 17.1322 30.9194 17.1152 31.0074 17.0812C31.0974 17.0452 31.1794 16.9962 31.2534 16.9342V16.6342C31.1414 16.6022 31.0064 16.5862 30.8484 16.5862C30.6744 16.5862 30.5544 16.6082 30.4884 16.6522C30.4224 16.6962 30.3894 16.7652 30.3894 16.8592ZM34.7014 17.1532V17.3182H34.2454V16.3252C34.2454 16.2072 34.2194 16.1222 34.1674 16.0702C34.1154 16.0162 34.0384 15.9892 33.9364 15.9892C33.8664 15.9892 33.8014 15.9982 33.7414 16.0162C33.6834 16.0322 33.5874 16.0642 33.4534 16.1122V17.0632L33.6574 17.1532V17.3182H33.2014V16.3252C33.2014 16.2072 33.1754 16.1222 33.1234 16.0702C33.0714 16.0162 32.9944 15.9892 32.8924 15.9892C32.8244 15.9892 32.7604 15.9982 32.7004 16.0162C32.6424 16.0322 32.5454 16.0642 32.4094 16.1122V17.0632L32.6134 17.1532V17.3182H31.9534V17.1532L32.1574 17.0632V16.0672L31.9534 15.9832V15.8122H32.2864L32.3644 15.9352C32.4824 15.8752 32.5884 15.8332 32.6824 15.8092C32.7764 15.7832 32.8734 15.7702 32.9734 15.7702C33.0734 15.7702 33.1564 15.7842 33.2224 15.8122C33.2904 15.8402 33.3464 15.8842 33.3904 15.9442C33.5104 15.8822 33.6184 15.8382 33.7144 15.8122C33.8124 15.7842 33.9134 15.7702 34.0174 15.7702C34.1374 15.7702 34.2324 15.7902 34.3024 15.8302C34.3724 15.8682 34.4224 15.9302 34.4524 16.0162C34.4824 16.1002 34.4974 16.2142 34.4974 16.3582V17.0632L34.7014 17.1532ZM35.6826 15.7702C35.8866 15.7702 36.0516 15.8342 36.1776 15.9622C36.3056 16.0882 36.3696 16.2762 36.3696 16.5262V16.6462H35.1936C35.2036 16.7802 35.2276 16.8832 35.2656 16.9552C35.3056 17.0252 35.3626 17.0742 35.4366 17.1022C35.5126 17.1302 35.6166 17.1442 35.7486 17.1442C35.9386 17.1442 36.1266 17.1212 36.3126 17.0752V17.2912C36.2346 17.3112 36.1436 17.3272 36.0396 17.3392C35.9356 17.3532 35.8366 17.3602 35.7426 17.3602C35.4766 17.3602 35.2746 17.3002 35.1366 17.1802C34.9986 17.0602 34.9296 16.8552 34.9296 16.5652C34.9296 16.2952 34.9976 16.0952 35.1336 15.9652C35.2696 15.8352 35.4526 15.7702 35.6826 15.7702ZM35.6676 15.9862C35.5116 15.9862 35.3976 16.0212 35.3256 16.0912C35.2536 16.1612 35.2106 16.2752 35.1966 16.4332H36.1026C36.0906 16.2852 36.0496 16.1742 35.9796 16.1002C35.9096 16.0242 35.8056 15.9862 35.6676 15.9862ZM38.3459 17.1532V17.3182H37.8899V16.3252C37.8899 16.2072 37.8609 16.1222 37.8029 16.0702C37.7469 16.0162 37.6639 15.9892 37.5539 15.9892C37.4839 15.9892 37.4149 15.9982 37.3469 16.0162C37.2809 16.0342 37.1839 16.0662 37.0559 16.1122V17.0632L37.2899 17.1532V17.3182H36.5999V17.1532L36.8039 17.0632V16.0672L36.5999 15.9832V15.8122H36.9329L37.0109 15.9352C37.1229 15.8772 37.2289 15.8352 37.3289 15.8092C37.4289 15.7832 37.5309 15.7702 37.6349 15.7702C37.7609 15.7702 37.8609 15.7902 37.9349 15.8302C38.0089 15.8682 38.0619 15.9302 38.0939 16.0162C38.1259 16.1002 38.1419 16.2142 38.1419 16.3582V17.0632L38.3459 17.1532ZM39.3002 17.3422C39.1082 17.3422 38.9702 17.3032 38.8862 17.2252C38.8042 17.1472 38.7632 17.0152 38.7632 16.8292V16.0222H38.5292V15.8542L38.7632 15.8122L38.8532 15.3772H39.0152V15.8122L39.5282 15.8152V16.0252L39.0152 16.0222V16.8292C39.0152 16.9112 39.0252 16.9732 39.0452 17.0152C39.0652 17.0572 39.0982 17.0862 39.1442 17.1022C39.1902 17.1182 39.2572 17.1262 39.3452 17.1262C39.4132 17.1262 39.4842 17.1192 39.5582 17.1052V17.3152C39.4862 17.3332 39.4002 17.3422 39.3002 17.3422ZM40.5344 15.7702C40.7644 15.7702 40.9484 15.8342 41.0864 15.9622C41.2264 16.0882 41.2964 16.2892 41.2964 16.5652C41.2964 16.8412 41.2264 17.0432 41.0864 17.1712C40.9484 17.2972 40.7644 17.3602 40.5344 17.3602C40.3044 17.3602 40.1194 17.2972 39.9794 17.1712C39.8414 17.0432 39.7724 16.8412 39.7724 16.5652C39.7724 16.2892 39.8414 16.0882 39.9794 15.9622C40.1194 15.8342 40.3044 15.7702 40.5344 15.7702ZM40.5344 15.9862C40.4144 15.9862 40.3184 16.0032 40.2464 16.0372C40.1764 16.0712 40.1234 16.1302 40.0874 16.2142C40.0534 16.2982 40.0364 16.4152 40.0364 16.5652C40.0364 16.7152 40.0534 16.8322 40.0874 16.9162C40.1234 17.0002 40.1764 17.0592 40.2464 17.0932C40.3184 17.1272 40.4144 17.1442 40.5344 17.1442C40.6544 17.1442 40.7494 17.1272 40.8194 17.0932C40.8914 17.0592 40.9444 17.0002 40.9784 16.9162C41.0144 16.8322 41.0324 16.7152 41.0324 16.5652C41.0324 16.4152 41.0144 16.2982 40.9784 16.2142C40.9444 16.1302 40.8914 16.0712 40.8194 16.0372C40.7494 16.0032 40.6544 15.9862 40.5344 15.9862ZM42.3939 16.4662C42.5319 16.4922 42.6349 16.5212 42.7029 16.5532C42.7709 16.5852 42.8169 16.6272 42.8409 16.6792C42.8649 16.7292 42.8769 16.8002 42.8769 16.8922C42.8769 17.0062 42.8559 17.0972 42.8139 17.1652C42.7739 17.2312 42.7019 17.2802 42.5979 17.3122C42.4959 17.3442 42.3509 17.3602 42.1629 17.3602C42.0669 17.3602 41.9739 17.3552 41.8839 17.3452C41.7939 17.3372 41.6849 17.3222 41.5569 17.3002V16.8682H41.7369L41.8239 17.1232C41.9299 17.1412 42.0459 17.1502 42.1719 17.1502C42.2959 17.1502 42.3889 17.1442 42.4509 17.1322C42.5129 17.1182 42.5549 17.0962 42.5769 17.0662C42.6009 17.0342 42.6129 16.9882 42.6129 16.9282C42.6129 16.8742 42.6019 16.8342 42.5799 16.8082C42.5579 16.7802 42.5249 16.7602 42.4809 16.7482C42.4389 16.7362 42.3649 16.7222 42.2589 16.7062L42.0549 16.6702C41.9129 16.6442 41.8059 16.6152 41.7339 16.5832C41.6619 16.5512 41.6109 16.5082 41.5809 16.4542C41.5529 16.3982 41.5389 16.3202 41.5389 16.2202C41.5389 16.1102 41.5579 16.0232 41.5959 15.9592C41.6359 15.8952 41.7039 15.8482 41.7999 15.8182C41.8959 15.7862 42.0309 15.7702 42.2049 15.7702C42.3789 15.7702 42.5849 15.7902 42.8229 15.8302V16.2472H42.6489L42.5679 16.0132C42.4359 15.9912 42.3109 15.9802 42.1929 15.9802C42.0889 15.9802 42.0089 15.9872 41.9529 16.0012C41.8969 16.0152 41.8579 16.0372 41.8359 16.0672C41.8139 16.0972 41.8029 16.1402 41.8029 16.1962C41.8029 16.2522 41.8149 16.2942 41.8389 16.3222C41.8629 16.3482 41.9019 16.3692 41.9559 16.3852C42.0099 16.3992 42.1039 16.4172 42.2379 16.4392C42.2879 16.4452 42.3399 16.4542 42.3939 16.4662ZM45.7589 15.8092H45.5819L45.5039 15.4942H44.4839V16.1842H45.0809L45.1259 15.9532H45.2909V16.6312H45.1259L45.0809 16.4002H44.4839V17.1022H45.5039L45.5819 16.7572H45.7589V17.3182H44.0039V17.1532L44.2259 17.0632V15.5362L44.0039 15.4492V15.2782H45.7589V15.8092ZM46.51 17.0632L46.714 17.1532V17.3182H46.054V17.1532L46.258 17.0632V15.4432L46.054 15.3592V15.1882H46.51V17.0632ZM47.6944 15.7702C47.8984 15.7702 48.0634 15.8342 48.1894 15.9622C48.3174 16.0882 48.3814 16.2762 48.3814 16.5262V16.6462H47.2054C47.2154 16.7802 47.2394 16.8832 47.2774 16.9552C47.3174 17.0252 47.3744 17.0742 47.4484 17.1022C47.5244 17.1302 47.6284 17.1442 47.7604 17.1442C47.9504 17.1442 48.1384 17.1212 48.3244 17.0752V17.2912C48.2464 17.3112 48.1554 17.3272 48.0514 17.3392C47.9474 17.3532 47.8484 17.3602 47.7544 17.3602C47.4884 17.3602 47.2864 17.3002 47.1484 17.1802C47.0104 17.0602 46.9414 16.8552 46.9414 16.5652C46.9414 16.2952 47.0094 16.0952 47.1454 15.9652C47.2814 15.8352 47.4644 15.7702 47.6944 15.7702ZM47.6794 15.9862C47.5234 15.9862 47.4094 16.0212 47.3374 16.0912C47.2654 16.1612 47.2224 16.2752 47.2084 16.4332H48.1144C48.1024 16.2852 48.0614 16.1742 47.9914 16.1002C47.9214 16.0242 47.8174 15.9862 47.6794 15.9862ZM47.8054 15.6022H47.5534L47.8774 15.0502H48.2374L47.8054 15.6022ZM49.3226 17.3422C49.1306 17.3422 48.9926 17.3032 48.9086 17.2252C48.8266 17.1472 48.7856 17.0152 48.7856 16.8292V16.0222H48.5516V15.8542L48.7856 15.8122L48.8756 15.3772H49.0376V15.8122L49.5506 15.8152V16.0252L49.0376 16.0222V16.8292C49.0376 16.9112 49.0476 16.9732 49.0676 17.0152C49.0876 17.0572 49.1206 17.0862 49.1666 17.1022C49.2126 17.1182 49.2796 17.1262 49.3676 17.1262C49.4356 17.1262 49.5066 17.1192 49.5806 17.1052V17.3152C49.5086 17.3332 49.4226 17.3422 49.3226 17.3422ZM50.8862 15.7642C50.9742 15.7642 51.0382 15.7852 51.0782 15.8272C51.1182 15.8692 51.1382 15.9342 51.1382 16.0222C51.1382 16.1842 51.0462 16.2652 50.8622 16.2652L50.7422 15.9952C50.6642 16.0152 50.5852 16.0432 50.5052 16.0792C50.4272 16.1132 50.3572 16.1502 50.2952 16.1902V17.0632L50.5742 17.1532V17.3182H49.8392V17.1532L50.0432 17.0632V16.0672L49.8392 15.9832V15.8122H50.1722L50.2862 15.9922C50.3862 15.9182 50.4882 15.8622 50.5922 15.8242C50.6962 15.7842 50.7942 15.7642 50.8862 15.7642ZM51.6569 15.1552C51.7189 15.1552 51.7679 15.1732 51.8039 15.2092C51.8419 15.2452 51.8609 15.2962 51.8609 15.3622C51.8609 15.4282 51.8419 15.4792 51.8039 15.5152C51.7679 15.5512 51.7189 15.5692 51.6569 15.5692C51.5949 15.5692 51.5449 15.5512 51.5069 15.5152C51.4709 15.4792 51.4529 15.4282 51.4529 15.3622C51.4529 15.2962 51.4709 15.2452 51.5069 15.2092C51.5449 15.1732 51.5949 15.1552 51.6569 15.1552ZM51.8069 17.0632L52.0109 17.1532V17.3182H51.3509V17.1532L51.5549 17.0632V16.0672L51.3509 15.9832V15.8122H51.8069V17.0632ZM53.0392 15.7702C53.2052 15.7702 53.3222 15.7912 53.3902 15.8332C53.4582 15.8752 53.4922 15.9422 53.4922 16.0342C53.4922 16.1962 53.3962 16.2772 53.2042 16.2772L53.0722 15.9772C52.9142 15.9772 52.7952 15.9952 52.7152 16.0312C52.6352 16.0672 52.5792 16.1262 52.5472 16.2082C52.5172 16.2882 52.5022 16.4052 52.5022 16.5592C52.5022 16.7172 52.5192 16.8382 52.5532 16.9222C52.5892 17.0062 52.6432 17.0642 52.7152 17.0962C52.7892 17.1282 52.8892 17.1442 53.0152 17.1442C53.1012 17.1442 53.1792 17.1392 53.2492 17.1292C53.3192 17.1172 53.3922 17.0972 53.4682 17.0692V17.2852C53.4062 17.3092 53.3332 17.3272 53.2492 17.3392C53.1672 17.3532 53.0852 17.3602 53.0032 17.3602C52.7552 17.3602 52.5652 17.3012 52.4332 17.1832C52.3032 17.0632 52.2382 16.8582 52.2382 16.5682C52.2382 16.2862 52.3042 16.0832 52.4362 15.9592C52.5702 15.8332 52.7712 15.7702 53.0392 15.7702ZM54.4973 15.7702C54.7273 15.7702 54.9113 15.8342 55.0493 15.9622C55.1893 16.0882 55.2593 16.2892 55.2593 16.5652C55.2593 16.8412 55.1893 17.0432 55.0493 17.1712C54.9113 17.2972 54.7273 17.3602 54.4973 17.3602C54.2673 17.3602 54.0823 17.2972 53.9423 17.1712C53.8043 17.0432 53.7353 16.8412 53.7353 16.5652C53.7353 16.2892 53.8043 16.0882 53.9423 15.9622C54.0823 15.8342 54.2673 15.7702 54.4973 15.7702ZM54.4973 15.9862C54.3773 15.9862 54.2813 16.0032 54.2093 16.0372C54.1393 16.0712 54.0863 16.1302 54.0503 16.2142C54.0163 16.2982 53.9993 16.4152 53.9993 16.5652C53.9993 16.7152 54.0163 16.8322 54.0503 16.9162C54.0863 17.0002 54.1393 17.0592 54.2093 17.0932C54.2813 17.1272 54.3773 17.1442 54.4973 17.1442C54.6173 17.1442 54.7123 17.1272 54.7823 17.0932C54.8543 17.0592 54.9073 17.0002 54.9413 16.9162C54.9773 16.8322 54.9953 16.7152 54.9953 16.5652C54.9953 16.4152 54.9773 16.2982 54.9413 16.2142C54.9073 16.1302 54.8543 16.0712 54.7823 16.0372C54.7123 16.0032 54.6173 15.9862 54.4973 15.9862ZM56.3568 16.4662C56.4948 16.4922 56.5978 16.5212 56.6658 16.5532C56.7338 16.5852 56.7798 16.6272 56.8038 16.6792C56.8278 16.7292 56.8398 16.8002 56.8398 16.8922C56.8398 17.0062 56.8188 17.0972 56.7768 17.1652C56.7368 17.2312 56.6648 17.2802 56.5608 17.3122C56.4588 17.3442 56.3138 17.3602 56.1258 17.3602C56.0298 17.3602 55.9368 17.3552 55.8468 17.3452C55.7568 17.3372 55.6478 17.3222 55.5198 17.3002V16.8682H55.6998L55.7868 17.1232C55.8928 17.1412 56.0088 17.1502 56.1348 17.1502C56.2588 17.1502 56.3518 17.1442 56.4138 17.1322C56.4758 17.1182 56.5178 17.0962 56.5398 17.0662C56.5638 17.0342 56.5758 16.9882 56.5758 16.9282C56.5758 16.8742 56.5648 16.8342 56.5428 16.8082C56.5208 16.7802 56.4878 16.7602 56.4438 16.7482C56.4018 16.7362 56.3278 16.7222 56.2218 16.7062L56.0178 16.6702C55.8758 16.6442 55.7688 16.6152 55.6968 16.5832C55.6248 16.5512 55.5738 16.5082 55.5438 16.4542C55.5158 16.3982 55.5018 16.3202 55.5018 16.2202C55.5018 16.1102 55.5208 16.0232 55.5588 15.9592C55.5988 15.8952 55.6668 15.8482 55.7628 15.8182C55.8588 15.7862 55.9938 15.7702 56.1678 15.7702C56.3418 15.7702 56.5478 15.7902 56.7858 15.8302V16.2472H56.6118L56.5308 16.0132C56.3988 15.9912 56.2738 15.9802 56.1558 15.9802C56.0518 15.9802 55.9718 15.9872 55.9158 16.0012C55.8598 16.0152 55.8208 16.0372 55.7988 16.0672C55.7768 16.0972 55.7658 16.1402 55.7658 16.1962C55.7658 16.2522 55.7778 16.2942 55.8018 16.3222C55.8258 16.3482 55.8648 16.3692 55.9188 16.3852C55.9728 16.3992 56.0668 16.4172 56.2008 16.4392C56.2508 16.4452 56.3028 16.4542 56.3568 16.4662Z" fill="black"/>
<rect x="0.39386" y="2.85082" width="16.2123" height="2.82833" fill="#C1482E" stroke="black" stroke-width="0.015"/>
<rect x="7.34091" width="2.70455" height="19.0909" fill="#C4C4C4"/>
<rect y="12.9981" width="1.21857" height="17" transform="rotate(-90 0 12.9981)" fill="#C4C4C4"/>
<rect y="16.6538" width="1.21857" height="17" transform="rotate(-90 0 16.6538)" fill="#C4C4C4"/>
<rect x="11.5909" width="2.70455" height="19.0909" fill="#C4C4C4"/>
<rect y="9.34235" width="1.21857" height="17" transform="rotate(-90 0 9.34235)" fill="#C4C4C4"/>
<rect x="3.09091" width="2.70455" height="19.0909" fill="#C4C4C4"/>
<ellipse cx="4.44319" cy="8.73306" rx="0.579545" ry="0.609284" fill="#3A3434" fill-opacity="0.29"/>
<ellipse cx="8.69318" cy="12.795" rx="0.579545" ry="0.609284" fill="#3A3434" fill-opacity="0.29"/>
<ellipse cx="12.9432" cy="16.0445" rx="0.579545" ry="0.609284" fill="#3A3434" fill-opacity="0.29"/>
<ellipse cx="1.73863" cy="4.265" rx="0.579545" ry="0.609284" fill="#3A3434" fill-opacity="0.29"/>
<ellipse cx="15.2614" cy="4.265" rx="0.579545" ry="0.609284" fill="#3A3434" fill-opacity="0.29"/>
<ellipse cx="4.44319" cy="4.265" rx="0.579545" ry="0.609284" fill="#3A3434" fill-opacity="0.29"/>
<ellipse cx="8.69318" cy="4.265" rx="0.579545" ry="0.609284" fill="#3A3434" fill-opacity="0.29"/>
<ellipse cx="12.9432" cy="4.265" rx="0.579545" ry="0.609284" fill="#3A3434" fill-opacity="0.29"/>
</svg>
