<svg width="156" height="306" viewBox="0 0 156 306" fill="none" xmlns="http://www.w3.org/2000/svg">
<path d="M155.113 72.717H153.403V26.6578C153.403 19.5877 150.548 12.8072 145.466 7.8079C140.384 2.8086 133.491 5.5757e-06 126.303 0H27.1C23.5417 -8.83439e-06 20.0172 0.689507 16.7296 2.02918C13.4412 3.36885 10.454 5.33245 7.93747 7.80785C5.42097 10.2833 3.42496 13.222 2.06268 16.4562C0.701217 19.6905 0 23.157 0 26.6577V279.342C0 282.843 0.701217 286.309 2.06268 289.544C3.42496 292.778 5.42097 295.717 7.93747 298.192C10.454 300.668 13.4412 302.631 16.7296 303.971C20.0172 305.311 23.5409 306 27.1 306H126.303C133.491 306 140.384 303.191 145.466 298.192C150.548 293.193 153.403 286.412 153.403 279.342V105.503H155.113V72.717Z" fill="#3A3434"/>
<path d="M127.396 6.93541H114.447C115.043 8.37159 115.27 9.92973 115.109 11.4726C114.948 13.0155 114.404 14.4959 113.525 15.7831C112.645 17.0704 111.457 18.1252 110.065 18.8546C108.674 19.5839 107.121 19.9655 105.545 19.9656H48.7132C47.1357 19.9655 45.5839 19.584 44.1919 18.8546C42.8007 18.1252 41.6127 17.0704 40.7332 15.7831C39.8537 14.4959 39.3099 13.0155 39.1484 11.4726C38.9878 9.92966 39.2151 8.37151 39.8103 6.93539H27.7161C22.3481 6.93539 17.2011 9.03277 13.405 12.7662C9.60979 16.4996 7.47803 21.5633 7.47803 26.8432V279.157C7.47803 281.771 8.00093 284.359 9.01782 286.775C10.0355 289.191 11.5263 291.385 13.405 293.233C15.2846 295.082 17.5159 296.549 19.9714 297.549C22.4261 298.549 25.0582 299.065 27.7161 299.065H127.396C130.054 299.065 132.686 298.549 135.141 297.549C137.597 296.549 139.828 295.082 141.707 293.233C143.586 291.385 145.077 289.191 146.094 286.775C147.111 284.36 147.634 281.771 147.634 279.157V26.8432C147.634 24.2288 147.111 21.64 146.094 19.2248C145.077 16.8094 143.586 14.6149 141.707 12.7662C139.828 10.9176 137.597 9.4512 135.141 8.45081C132.686 7.45034 130.054 6.93541 127.396 6.93541Z" fill="white"/>
<path d="M135.517 158.954H87.342V269.227H135.517V158.954Z" fill="#E6E6E6"/>
<path d="M135.691 53.9227H87.3894V80.7334H135.691V53.9227Z" fill="#E6E6E6"/>
<path d="M135.691 88.2H87.3894V117.047H135.691V88.2Z" fill="#E6E6E6"/>
<path d="M135.691 124.514H87.3894V151.324H135.691V124.514Z" fill="#E6E6E6"/>
<path d="M77.4551 158.954H19.4927V201.402H77.4551V158.954Z" fill="#C1482E"/>
<path d="M77.4551 209.63H19.4927V269.316H77.4551V209.63Z" fill="#E6E6E6"/>
<rect x="22.3473" y="96.4969" width="51.5305" height="8.47436" fill="#C1482E" stroke="black" stroke-width="0.015"/>
<rect x="44.4307" y="88" width="8.59091" height="57" fill="#C4C4C4"/>
<rect x="21.1125" y="126.809" width="3.6383" height="54" transform="rotate(-90 21.1125 126.809)" fill="#C4C4C4"/>
<rect x="21.1125" y="137.723" width="3.6383" height="54" transform="rotate(-90 21.1125 137.723)" fill="#C4C4C4"/>
<rect x="57.9307" y="88" width="8.59091" height="57" fill="#C4C4C4"/>
<rect x="21.1125" y="115.894" width="3.6383" height="54" transform="rotate(-90 21.1125 115.894)" fill="#C4C4C4"/>
<rect x="30.9307" y="88" width="8.59091" height="57" fill="#C4C4C4"/>
<ellipse cx="35.2262" cy="114.074" rx="1.84091" ry="1.81915" fill="#3A3434" fill-opacity="0.29"/>
<ellipse cx="48.7262" cy="126.202" rx="1.84091" ry="1.81915" fill="#3A3434" fill-opacity="0.29"/>
<ellipse cx="62.2262" cy="135.904" rx="1.84091" ry="1.81915" fill="#3A3434" fill-opacity="0.29"/>
<ellipse cx="26.6353" cy="100.734" rx="1.84091" ry="1.81915" fill="#3A3434" fill-opacity="0.29"/>
<ellipse cx="69.5898" cy="100.734" rx="1.84091" ry="1.81915" fill="#3A3434" fill-opacity="0.29"/>
<ellipse cx="35.2262" cy="100.734" rx="1.84091" ry="1.81915" fill="#3A3434" fill-opacity="0.29"/>
<ellipse cx="48.7262" cy="100.734" rx="1.84091" ry="1.81915" fill="#3A3434" fill-opacity="0.29"/>
<ellipse cx="62.2262" cy="100.734" rx="1.84091" ry="1.81915" fill="#3A3434" fill-opacity="0.29"/>
<path d="M43.3227 191.657C38.5085 189.413 35.1792 184.589 35.1792 179C35.1792 171.268 41.5517 165 49.4125 165C57.2734 165 63.6459 171.268 63.6459 179C63.6459 184.589 60.3166 189.413 55.5024 191.657" stroke="#D2D4D9" stroke-width="2" stroke-miterlimit="10" stroke-linecap="round" stroke-linejoin="round"/>
<g filter="url(#filter0_d)">
<path d="M43.3125 211C43.3125 207.686 40.5818 205 37.2125 205C33.8433 205 31.1125 207.686 31.1125 211V225C31.1125 241.568 44.7684 255 61.6125 255C78.4567 255 92.1125 241.568 92.1125 225V211C92.1125 207.686 89.3818 205 86.0125 205C82.6433 205 79.9125 207.686 79.9125 211V207C79.9125 203.686 77.1818 201 73.8125 201C70.4433 201 67.7125 203.686 67.7125 207V203C67.7125 199.686 64.9818 197 61.6125 197C58.2433 197 55.5125 199.686 55.5125 203V179C55.5125 175.686 52.7818 173 49.4125 173C46.0433 173 43.3125 175.686 43.3125 179V223V211Z" fill="#FBFBFB"/>
<path d="M43.3125 211C43.3125 207.686 40.5818 205 37.2125 205C33.8433 205 31.1125 207.686 31.1125 211V225C31.1125 241.568 44.7684 255 61.6125 255C78.4567 255 92.1125 241.568 92.1125 225V211C92.1125 207.686 89.3818 205 86.0125 205C82.6433 205 79.9125 207.686 79.9125 211V207C79.9125 203.686 77.1818 201 73.8125 201C70.4433 201 67.7125 203.686 67.7125 207V203C67.7125 199.686 64.9818 197 61.6125 197C58.2433 197 55.5125 199.686 55.5125 203V179C55.5125 175.686 52.7818 173 49.4125 173C46.0433 173 43.3125 175.686 43.3125 179V223V211Z" stroke="#403C3C" stroke-width="4" stroke-miterlimit="10" stroke-linecap="round" stroke-linejoin="round"/>
</g>
<defs>
<filter id="filter0_d" x="25.1125" y="171" width="73" height="94" filterUnits="userSpaceOnUse" color-interpolation-filters="sRGB">
<feFlood flood-opacity="0" result="BackgroundImageFix"/>
<feColorMatrix in="SourceAlpha" type="matrix" values="0 0 0 0 0 0 0 0 0 0 0 0 0 0 0 0 0 0 127 0" result="hardAlpha"/>
<feOffset dy="4"/>
<feGaussianBlur stdDeviation="2"/>
<feColorMatrix type="matrix" values="0 0 0 0 0 0 0 0 0 0 0 0 0 0 0 0 0 0 0.25 0"/>
<feBlend mode="normal" in2="BackgroundImageFix" result="effect1_dropShadow"/>
<feBlend mode="normal" in="SourceGraphic" in2="effect1_dropShadow" result="shape"/>
</filter>
</defs>
</svg>
